M48
; DRILL file {KiCad 5.1.10-88a1d61d58~88~ubuntu20.04.1} date Tue Jun  8 22:21:58 2021
; FORMAT={-:-/ absolute / inch / decimal}
; #@! TF.CreationDate,2021-06-08T22:21:58-06:00
; #@! TF.GenerationSoftware,Kicad,Pcbnew,5.1.10-88a1d61d58~88~ubuntu20.04.1
; #@! TF.FileFunction,Plated,1,2,PTH
FMAT,2
INCH
T1C0.0276
T2C0.0394
T3C0.0400
T4C0.0402
T5C0.0433
%
G90
G05
T1
X9.454Y-4.0455
X9.454Y-4.1455
T2
X8.2035Y-3.7886
X8.2035Y-3.8886
X8.3035Y-3.7886
X8.3035Y-3.8886
X8.4035Y-3.7886
X8.4035Y-3.8886
X8.5035Y-3.7886
X8.5035Y-3.8886
X8.6035Y-3.7886
X8.6035Y-3.8886
X8.7035Y-3.7886
X8.7035Y-3.8886
X8.8035Y-3.7886
X8.8035Y-3.8886
X8.9035Y-3.7886
X8.9035Y-3.8886
X9.0035Y-3.7886
X9.0035Y-3.8886
X9.1035Y-3.7886
X9.1035Y-3.8886
X9.2035Y-3.7886
X9.2035Y-3.8886
X9.3035Y-3.7886
X9.3035Y-3.8886
X9.4035Y-3.7886
X9.4035Y-3.8886
X9.5035Y-3.7886
X9.5035Y-3.8886
X9.6035Y-3.7886
X9.6035Y-3.8886
X9.7035Y-3.7886
X9.7035Y-3.8886
X9.8035Y-3.7886
X9.8035Y-3.8886
X9.9035Y-3.7886
X9.9035Y-3.8886
X10.0035Y-3.7886
X10.0035Y-3.8886
X10.1035Y-3.7886
X10.1035Y-3.8886
T3
X8.574Y-4.0655
X8.574Y-4.4655
X8.674Y-4.0655
X8.674Y-4.4655
X8.774Y-4.0655
X8.774Y-4.4655
X8.874Y-4.0655
X8.874Y-4.4655
X8.974Y-4.0655
X8.974Y-4.4655
X9.074Y-4.0655
X9.074Y-4.4655
T4
X8.2441Y-4.1465
X8.2441Y-4.2646
X8.3622Y-4.1465
X8.3622Y-4.2646
T5
X9.274Y-4.2696
X9.274Y-4.5255
X9.4512Y-4.2696
X9.4512Y-4.5255
T2
G00X8.3469Y-5.6016
M15
G01X8.3469Y-5.6606
M16
G05
G00X8.4846Y-5.3555
M15
G01X8.5634Y-5.3555
M16
G05
G00X8.4984Y-5.5917
M15
G01X8.5496Y-5.5917
M16
G05
G00X8.7012Y-5.6016
M15
G01X8.7012Y-5.6606
M16
G05
T0
M30
