G04 #@! TF.GenerationSoftware,KiCad,Pcbnew,5.1.10-88a1d61d58~88~ubuntu20.04.1*
G04 #@! TF.CreationDate,2021-06-08T22:25:17-06:00*
G04 #@! TF.ProjectId,raspberrypi-led-hat-2,72617370-6265-4727-9279-70692d6c6564,rev?*
G04 #@! TF.SameCoordinates,Original*
G04 #@! TF.FileFunction,Other,Comment*
%FSLAX46Y46*%
G04 Gerber Fmt 4.6, Leading zero omitted, Abs format (unit mm)*
G04 Created by KiCad (PCBNEW 5.1.10-88a1d61d58~88~ubuntu20.04.1) date 2021-06-08 22:25:17*
%MOMM*%
%LPD*%
G01*
G04 APERTURE LIST*
%ADD10C,0.150000*%
%ADD11C,0.002000*%
G04 APERTURE END LIST*
D10*
X264200000Y-146500000D02*
G75*
G03*
X264200000Y-146500000I-2700000J0D01*
G01*
X206200000Y-146500000D02*
G75*
G03*
X206200000Y-146500000I-2700000J0D01*
G01*
X264200000Y-97500000D02*
G75*
G03*
X264200000Y-97500000I-2700000J0D01*
G01*
X206200000Y-97500000D02*
G75*
G03*
X206200000Y-97500000I-2700000J0D01*
G01*
D11*
X209445356Y-110965833D02*
X209451403Y-110971880D01*
X209457451Y-110990023D01*
X209457451Y-111002119D01*
X209451403Y-111020261D01*
X209439308Y-111032357D01*
X209427213Y-111038404D01*
X209403022Y-111044452D01*
X209384879Y-111044452D01*
X209360689Y-111038404D01*
X209348594Y-111032357D01*
X209336499Y-111020261D01*
X209330451Y-111002119D01*
X209330451Y-110990023D01*
X209336499Y-110971880D01*
X209342546Y-110965833D01*
X209457451Y-110893261D02*
X209451403Y-110905357D01*
X209445356Y-110911404D01*
X209433260Y-110917452D01*
X209396975Y-110917452D01*
X209384879Y-110911404D01*
X209378832Y-110905357D01*
X209372784Y-110893261D01*
X209372784Y-110875119D01*
X209378832Y-110863023D01*
X209384879Y-110856976D01*
X209396975Y-110850928D01*
X209433260Y-110850928D01*
X209445356Y-110856976D01*
X209451403Y-110863023D01*
X209457451Y-110875119D01*
X209457451Y-110893261D01*
X209372784Y-110796500D02*
X209499784Y-110796500D01*
X209378832Y-110796500D02*
X209372784Y-110784404D01*
X209372784Y-110760214D01*
X209378832Y-110748119D01*
X209384879Y-110742071D01*
X209396975Y-110736023D01*
X209433260Y-110736023D01*
X209445356Y-110742071D01*
X209451403Y-110748119D01*
X209457451Y-110760214D01*
X209457451Y-110784404D01*
X209451403Y-110796500D01*
X209372784Y-110693690D02*
X209457451Y-110663452D01*
X209372784Y-110633214D02*
X209457451Y-110663452D01*
X209487689Y-110675547D01*
X209493737Y-110681595D01*
X209499784Y-110693690D01*
X209457451Y-110584833D02*
X209372784Y-110584833D01*
X209396975Y-110584833D02*
X209384879Y-110578785D01*
X209378832Y-110572738D01*
X209372784Y-110560642D01*
X209372784Y-110548547D01*
X209457451Y-110506214D02*
X209372784Y-110506214D01*
X209330451Y-110506214D02*
X209336499Y-110512261D01*
X209342546Y-110506214D01*
X209336499Y-110500166D01*
X209330451Y-110506214D01*
X209342546Y-110506214D01*
X209372784Y-110391309D02*
X209475594Y-110391309D01*
X209487689Y-110397357D01*
X209493737Y-110403404D01*
X209499784Y-110415500D01*
X209499784Y-110433642D01*
X209493737Y-110445738D01*
X209451403Y-110391309D02*
X209457451Y-110403404D01*
X209457451Y-110427595D01*
X209451403Y-110439690D01*
X209445356Y-110445738D01*
X209433260Y-110451785D01*
X209396975Y-110451785D01*
X209384879Y-110445738D01*
X209378832Y-110439690D01*
X209372784Y-110427595D01*
X209372784Y-110403404D01*
X209378832Y-110391309D01*
X209457451Y-110330833D02*
X209330451Y-110330833D01*
X209457451Y-110276404D02*
X209390927Y-110276404D01*
X209378832Y-110282452D01*
X209372784Y-110294547D01*
X209372784Y-110312690D01*
X209378832Y-110324785D01*
X209384879Y-110330833D01*
X209372784Y-110234071D02*
X209372784Y-110185690D01*
X209330451Y-110215928D02*
X209439308Y-110215928D01*
X209451403Y-110209880D01*
X209457451Y-110197785D01*
X209457451Y-110185690D01*
X209342546Y-110052642D02*
X209336499Y-110046595D01*
X209330451Y-110034500D01*
X209330451Y-110004261D01*
X209336499Y-109992166D01*
X209342546Y-109986119D01*
X209354641Y-109980071D01*
X209366737Y-109980071D01*
X209384879Y-109986119D01*
X209457451Y-110058690D01*
X209457451Y-109980071D01*
X209330451Y-109901452D02*
X209330451Y-109889357D01*
X209336499Y-109877261D01*
X209342546Y-109871214D01*
X209354641Y-109865166D01*
X209378832Y-109859119D01*
X209409070Y-109859119D01*
X209433260Y-109865166D01*
X209445356Y-109871214D01*
X209451403Y-109877261D01*
X209457451Y-109889357D01*
X209457451Y-109901452D01*
X209451403Y-109913547D01*
X209445356Y-109919595D01*
X209433260Y-109925642D01*
X209409070Y-109931690D01*
X209378832Y-109931690D01*
X209354641Y-109925642D01*
X209342546Y-109919595D01*
X209336499Y-109913547D01*
X209330451Y-109901452D01*
X209342546Y-109810738D02*
X209336499Y-109804690D01*
X209330451Y-109792595D01*
X209330451Y-109762357D01*
X209336499Y-109750261D01*
X209342546Y-109744214D01*
X209354641Y-109738166D01*
X209366737Y-109738166D01*
X209384879Y-109744214D01*
X209457451Y-109816785D01*
X209457451Y-109738166D01*
X209457451Y-109617214D02*
X209457451Y-109689785D01*
X209457451Y-109653500D02*
X209330451Y-109653500D01*
X209348594Y-109665595D01*
X209360689Y-109677690D01*
X209366737Y-109689785D01*
X209421165Y-109472071D02*
X209421165Y-109411595D01*
X209457451Y-109484166D02*
X209330451Y-109441833D01*
X209457451Y-109399500D01*
X209451403Y-109302738D02*
X209457451Y-109314833D01*
X209457451Y-109339023D01*
X209451403Y-109351119D01*
X209445356Y-109357166D01*
X209433260Y-109363214D01*
X209396975Y-109363214D01*
X209384879Y-109357166D01*
X209378832Y-109351119D01*
X209372784Y-109339023D01*
X209372784Y-109314833D01*
X209378832Y-109302738D01*
X209451403Y-109193880D02*
X209457451Y-109205976D01*
X209457451Y-109230166D01*
X209451403Y-109242261D01*
X209445356Y-109248309D01*
X209433260Y-109254357D01*
X209396975Y-109254357D01*
X209384879Y-109248309D01*
X209378832Y-109242261D01*
X209372784Y-109230166D01*
X209372784Y-109205976D01*
X209378832Y-109193880D01*
X209451403Y-109091071D02*
X209457451Y-109103166D01*
X209457451Y-109127357D01*
X209451403Y-109139452D01*
X209439308Y-109145500D01*
X209390927Y-109145500D01*
X209378832Y-109139452D01*
X209372784Y-109127357D01*
X209372784Y-109103166D01*
X209378832Y-109091071D01*
X209390927Y-109085023D01*
X209403022Y-109085023D01*
X209415118Y-109145500D01*
X209457451Y-109012452D02*
X209451403Y-109024547D01*
X209439308Y-109030595D01*
X209330451Y-109030595D01*
X209451403Y-108915690D02*
X209457451Y-108927785D01*
X209457451Y-108951976D01*
X209451403Y-108964071D01*
X209439308Y-108970119D01*
X209390927Y-108970119D01*
X209378832Y-108964071D01*
X209372784Y-108951976D01*
X209372784Y-108927785D01*
X209378832Y-108915690D01*
X209390927Y-108909642D01*
X209403022Y-108909642D01*
X209415118Y-108970119D01*
X209457451Y-108855214D02*
X209372784Y-108855214D01*
X209396975Y-108855214D02*
X209384879Y-108849166D01*
X209378832Y-108843119D01*
X209372784Y-108831023D01*
X209372784Y-108818928D01*
X209457451Y-108722166D02*
X209390927Y-108722166D01*
X209378832Y-108728214D01*
X209372784Y-108740309D01*
X209372784Y-108764500D01*
X209378832Y-108776595D01*
X209451403Y-108722166D02*
X209457451Y-108734261D01*
X209457451Y-108764500D01*
X209451403Y-108776595D01*
X209439308Y-108782642D01*
X209427213Y-108782642D01*
X209415118Y-108776595D01*
X209409070Y-108764500D01*
X209409070Y-108734261D01*
X209403022Y-108722166D01*
X209372784Y-108679833D02*
X209372784Y-108631452D01*
X209330451Y-108661690D02*
X209439308Y-108661690D01*
X209451403Y-108655642D01*
X209457451Y-108643547D01*
X209457451Y-108631452D01*
X209451403Y-108540738D02*
X209457451Y-108552833D01*
X209457451Y-108577023D01*
X209451403Y-108589119D01*
X209439308Y-108595166D01*
X209390927Y-108595166D01*
X209378832Y-108589119D01*
X209372784Y-108577023D01*
X209372784Y-108552833D01*
X209378832Y-108540738D01*
X209390927Y-108534690D01*
X209403022Y-108534690D01*
X209415118Y-108595166D01*
X209457451Y-108425833D02*
X209330451Y-108425833D01*
X209451403Y-108425833D02*
X209457451Y-108437928D01*
X209457451Y-108462119D01*
X209451403Y-108474214D01*
X209445356Y-108480261D01*
X209433260Y-108486309D01*
X209396975Y-108486309D01*
X209384879Y-108480261D01*
X209378832Y-108474214D01*
X209372784Y-108462119D01*
X209372784Y-108437928D01*
X209378832Y-108425833D01*
X209457451Y-108268595D02*
X209330451Y-108268595D01*
X209330451Y-108238357D01*
X209336499Y-108220214D01*
X209348594Y-108208119D01*
X209360689Y-108202071D01*
X209384879Y-108196023D01*
X209403022Y-108196023D01*
X209427213Y-108202071D01*
X209439308Y-108208119D01*
X209451403Y-108220214D01*
X209457451Y-108238357D01*
X209457451Y-108268595D01*
X209451403Y-108093214D02*
X209457451Y-108105309D01*
X209457451Y-108129500D01*
X209451403Y-108141595D01*
X209439308Y-108147642D01*
X209390927Y-108147642D01*
X209378832Y-108141595D01*
X209372784Y-108129500D01*
X209372784Y-108105309D01*
X209378832Y-108093214D01*
X209390927Y-108087166D01*
X209403022Y-108087166D01*
X209415118Y-108147642D01*
X209451403Y-108038785D02*
X209457451Y-108026690D01*
X209457451Y-108002500D01*
X209451403Y-107990404D01*
X209439308Y-107984357D01*
X209433260Y-107984357D01*
X209421165Y-107990404D01*
X209415118Y-108002500D01*
X209415118Y-108020642D01*
X209409070Y-108032738D01*
X209396975Y-108038785D01*
X209390927Y-108038785D01*
X209378832Y-108032738D01*
X209372784Y-108020642D01*
X209372784Y-108002500D01*
X209378832Y-107990404D01*
X209457451Y-107929928D02*
X209372784Y-107929928D01*
X209330451Y-107929928D02*
X209336499Y-107935976D01*
X209342546Y-107929928D01*
X209336499Y-107923880D01*
X209330451Y-107929928D01*
X209342546Y-107929928D01*
X209372784Y-107815023D02*
X209475594Y-107815023D01*
X209487689Y-107821071D01*
X209493737Y-107827119D01*
X209499784Y-107839214D01*
X209499784Y-107857357D01*
X209493737Y-107869452D01*
X209451403Y-107815023D02*
X209457451Y-107827119D01*
X209457451Y-107851309D01*
X209451403Y-107863404D01*
X209445356Y-107869452D01*
X209433260Y-107875500D01*
X209396975Y-107875500D01*
X209384879Y-107869452D01*
X209378832Y-107863404D01*
X209372784Y-107851309D01*
X209372784Y-107827119D01*
X209378832Y-107815023D01*
X209372784Y-107754547D02*
X209457451Y-107754547D01*
X209384879Y-107754547D02*
X209378832Y-107748500D01*
X209372784Y-107736404D01*
X209372784Y-107718261D01*
X209378832Y-107706166D01*
X209390927Y-107700119D01*
X209457451Y-107700119D01*
X209451403Y-107645690D02*
X209457451Y-107633595D01*
X209457451Y-107609404D01*
X209451403Y-107597309D01*
X209439308Y-107591261D01*
X209433260Y-107591261D01*
X209421165Y-107597309D01*
X209415118Y-107609404D01*
X209415118Y-107627547D01*
X209409070Y-107639642D01*
X209396975Y-107645690D01*
X209390927Y-107645690D01*
X209378832Y-107639642D01*
X209372784Y-107627547D01*
X209372784Y-107609404D01*
X209378832Y-107597309D01*
X209445356Y-107536833D02*
X209451403Y-107530785D01*
X209457451Y-107536833D01*
X209451403Y-107542880D01*
X209445356Y-107536833D01*
X209457451Y-107536833D01*
X209421165Y-107385642D02*
X209421165Y-107325166D01*
X209457451Y-107397738D02*
X209330451Y-107355404D01*
X209457451Y-107313071D01*
X209457451Y-107252595D02*
X209451403Y-107264690D01*
X209439308Y-107270738D01*
X209330451Y-107270738D01*
X209457451Y-107186071D02*
X209451403Y-107198166D01*
X209439308Y-107204214D01*
X209330451Y-107204214D01*
X209457451Y-107040928D02*
X209372784Y-107040928D01*
X209396975Y-107040928D02*
X209384879Y-107034880D01*
X209378832Y-107028833D01*
X209372784Y-107016738D01*
X209372784Y-107004642D01*
X209457451Y-106962309D02*
X209372784Y-106962309D01*
X209330451Y-106962309D02*
X209336499Y-106968357D01*
X209342546Y-106962309D01*
X209336499Y-106956261D01*
X209330451Y-106962309D01*
X209342546Y-106962309D01*
X209372784Y-106847404D02*
X209475594Y-106847404D01*
X209487689Y-106853452D01*
X209493737Y-106859500D01*
X209499784Y-106871595D01*
X209499784Y-106889738D01*
X209493737Y-106901833D01*
X209451403Y-106847404D02*
X209457451Y-106859500D01*
X209457451Y-106883690D01*
X209451403Y-106895785D01*
X209445356Y-106901833D01*
X209433260Y-106907880D01*
X209396975Y-106907880D01*
X209384879Y-106901833D01*
X209378832Y-106895785D01*
X209372784Y-106883690D01*
X209372784Y-106859500D01*
X209378832Y-106847404D01*
X209457451Y-106786928D02*
X209330451Y-106786928D01*
X209457451Y-106732500D02*
X209390927Y-106732500D01*
X209378832Y-106738547D01*
X209372784Y-106750642D01*
X209372784Y-106768785D01*
X209378832Y-106780880D01*
X209384879Y-106786928D01*
X209372784Y-106690166D02*
X209372784Y-106641785D01*
X209330451Y-106672023D02*
X209439308Y-106672023D01*
X209451403Y-106665976D01*
X209457451Y-106653880D01*
X209457451Y-106641785D01*
X209451403Y-106605500D02*
X209457451Y-106593404D01*
X209457451Y-106569214D01*
X209451403Y-106557119D01*
X209439308Y-106551071D01*
X209433260Y-106551071D01*
X209421165Y-106557119D01*
X209415118Y-106569214D01*
X209415118Y-106587357D01*
X209409070Y-106599452D01*
X209396975Y-106605500D01*
X209390927Y-106605500D01*
X209378832Y-106599452D01*
X209372784Y-106587357D01*
X209372784Y-106569214D01*
X209378832Y-106557119D01*
X209457451Y-106399880D02*
X209372784Y-106399880D01*
X209396975Y-106399880D02*
X209384879Y-106393833D01*
X209378832Y-106387785D01*
X209372784Y-106375690D01*
X209372784Y-106363595D01*
X209451403Y-106272880D02*
X209457451Y-106284976D01*
X209457451Y-106309166D01*
X209451403Y-106321261D01*
X209439308Y-106327309D01*
X209390927Y-106327309D01*
X209378832Y-106321261D01*
X209372784Y-106309166D01*
X209372784Y-106284976D01*
X209378832Y-106272880D01*
X209390927Y-106266833D01*
X209403022Y-106266833D01*
X209415118Y-106327309D01*
X209451403Y-106218452D02*
X209457451Y-106206357D01*
X209457451Y-106182166D01*
X209451403Y-106170071D01*
X209439308Y-106164023D01*
X209433260Y-106164023D01*
X209421165Y-106170071D01*
X209415118Y-106182166D01*
X209415118Y-106200309D01*
X209409070Y-106212404D01*
X209396975Y-106218452D01*
X209390927Y-106218452D01*
X209378832Y-106212404D01*
X209372784Y-106200309D01*
X209372784Y-106182166D01*
X209378832Y-106170071D01*
X209451403Y-106061214D02*
X209457451Y-106073309D01*
X209457451Y-106097500D01*
X209451403Y-106109595D01*
X209439308Y-106115642D01*
X209390927Y-106115642D01*
X209378832Y-106109595D01*
X209372784Y-106097500D01*
X209372784Y-106073309D01*
X209378832Y-106061214D01*
X209390927Y-106055166D01*
X209403022Y-106055166D01*
X209415118Y-106115642D01*
X209457451Y-106000738D02*
X209372784Y-106000738D01*
X209396975Y-106000738D02*
X209384879Y-105994690D01*
X209378832Y-105988642D01*
X209372784Y-105976547D01*
X209372784Y-105964452D01*
X209372784Y-105934214D02*
X209457451Y-105903976D01*
X209372784Y-105873738D01*
X209451403Y-105776976D02*
X209457451Y-105789071D01*
X209457451Y-105813261D01*
X209451403Y-105825357D01*
X209439308Y-105831404D01*
X209390927Y-105831404D01*
X209378832Y-105825357D01*
X209372784Y-105813261D01*
X209372784Y-105789071D01*
X209378832Y-105776976D01*
X209390927Y-105770928D01*
X209403022Y-105770928D01*
X209415118Y-105831404D01*
X209457451Y-105662071D02*
X209330451Y-105662071D01*
X209451403Y-105662071D02*
X209457451Y-105674166D01*
X209457451Y-105698357D01*
X209451403Y-105710452D01*
X209445356Y-105716500D01*
X209433260Y-105722547D01*
X209396975Y-105722547D01*
X209384879Y-105716500D01*
X209378832Y-105710452D01*
X209372784Y-105698357D01*
X209372784Y-105674166D01*
X209378832Y-105662071D01*
X209445356Y-105601595D02*
X209451403Y-105595547D01*
X209457451Y-105601595D01*
X209451403Y-105607642D01*
X209445356Y-105601595D01*
X209457451Y-105601595D01*
M02*
