G04 #@! TF.GenerationSoftware,KiCad,Pcbnew,5.1.10-88a1d61d58~88~ubuntu20.04.1*
G04 #@! TF.CreationDate,2021-06-08T22:25:17-06:00*
G04 #@! TF.ProjectId,raspberrypi-led-hat-2,72617370-6265-4727-9279-70692d6c6564,rev?*
G04 #@! TF.SameCoordinates,Original*
G04 #@! TF.FileFunction,Legend,Top*
G04 #@! TF.FilePolarity,Positive*
%FSLAX46Y46*%
G04 Gerber Fmt 4.6, Leading zero omitted, Abs format (unit mm)*
G04 Created by KiCad (PCBNEW 5.1.10-88a1d61d58~88~ubuntu20.04.1) date 2021-06-08 22:25:17*
%MOMM*%
%LPD*%
G01*
G04 APERTURE LIST*
%ADD10C,0.150000*%
%ADD11C,0.120000*%
G04 APERTURE END LIST*
D10*
X226941428Y-126469761D02*
X226274761Y-125517380D01*
X225798571Y-126469761D02*
X225798571Y-124469761D01*
X226560476Y-124469761D01*
X226750952Y-124565000D01*
X226846190Y-124660238D01*
X226941428Y-124850714D01*
X226941428Y-125136428D01*
X226846190Y-125326904D01*
X226750952Y-125422142D01*
X226560476Y-125517380D01*
X225798571Y-125517380D01*
X228655714Y-126469761D02*
X228655714Y-125422142D01*
X228560476Y-125231666D01*
X228370000Y-125136428D01*
X227989047Y-125136428D01*
X227798571Y-125231666D01*
X228655714Y-126374523D02*
X228465238Y-126469761D01*
X227989047Y-126469761D01*
X227798571Y-126374523D01*
X227703333Y-126184047D01*
X227703333Y-125993571D01*
X227798571Y-125803095D01*
X227989047Y-125707857D01*
X228465238Y-125707857D01*
X228655714Y-125612619D01*
X229512857Y-126374523D02*
X229703333Y-126469761D01*
X230084285Y-126469761D01*
X230274761Y-126374523D01*
X230370000Y-126184047D01*
X230370000Y-126088809D01*
X230274761Y-125898333D01*
X230084285Y-125803095D01*
X229798571Y-125803095D01*
X229608095Y-125707857D01*
X229512857Y-125517380D01*
X229512857Y-125422142D01*
X229608095Y-125231666D01*
X229798571Y-125136428D01*
X230084285Y-125136428D01*
X230274761Y-125231666D01*
X231227142Y-125136428D02*
X231227142Y-127136428D01*
X231227142Y-125231666D02*
X231417619Y-125136428D01*
X231798571Y-125136428D01*
X231989047Y-125231666D01*
X232084285Y-125326904D01*
X232179523Y-125517380D01*
X232179523Y-126088809D01*
X232084285Y-126279285D01*
X231989047Y-126374523D01*
X231798571Y-126469761D01*
X231417619Y-126469761D01*
X231227142Y-126374523D01*
X233036666Y-126469761D02*
X233036666Y-124469761D01*
X233036666Y-125231666D02*
X233227142Y-125136428D01*
X233608095Y-125136428D01*
X233798571Y-125231666D01*
X233893809Y-125326904D01*
X233989047Y-125517380D01*
X233989047Y-126088809D01*
X233893809Y-126279285D01*
X233798571Y-126374523D01*
X233608095Y-126469761D01*
X233227142Y-126469761D01*
X233036666Y-126374523D01*
X235608095Y-126374523D02*
X235417619Y-126469761D01*
X235036666Y-126469761D01*
X234846190Y-126374523D01*
X234750952Y-126184047D01*
X234750952Y-125422142D01*
X234846190Y-125231666D01*
X235036666Y-125136428D01*
X235417619Y-125136428D01*
X235608095Y-125231666D01*
X235703333Y-125422142D01*
X235703333Y-125612619D01*
X234750952Y-125803095D01*
X236560476Y-126469761D02*
X236560476Y-125136428D01*
X236560476Y-125517380D02*
X236655714Y-125326904D01*
X236750952Y-125231666D01*
X236941428Y-125136428D01*
X237131904Y-125136428D01*
X237798571Y-126469761D02*
X237798571Y-125136428D01*
X237798571Y-125517380D02*
X237893809Y-125326904D01*
X237989047Y-125231666D01*
X238179523Y-125136428D01*
X238370000Y-125136428D01*
X238846190Y-125136428D02*
X239322380Y-126469761D01*
X239798571Y-125136428D02*
X239322380Y-126469761D01*
X239131904Y-126945952D01*
X239036666Y-127041190D01*
X238846190Y-127136428D01*
X242084285Y-126469761D02*
X242084285Y-124469761D01*
X242846190Y-124469761D01*
X243036666Y-124565000D01*
X243131904Y-124660238D01*
X243227142Y-124850714D01*
X243227142Y-125136428D01*
X243131904Y-125326904D01*
X243036666Y-125422142D01*
X242846190Y-125517380D01*
X242084285Y-125517380D01*
X244084285Y-126469761D02*
X244084285Y-124469761D01*
X247512857Y-126469761D02*
X246560476Y-126469761D01*
X246560476Y-124469761D01*
X248179523Y-125422142D02*
X248846190Y-125422142D01*
X249131904Y-126469761D02*
X248179523Y-126469761D01*
X248179523Y-124469761D01*
X249131904Y-124469761D01*
X249989047Y-126469761D02*
X249989047Y-124469761D01*
X250465238Y-124469761D01*
X250750952Y-124565000D01*
X250941428Y-124755476D01*
X251036666Y-124945952D01*
X251131904Y-125326904D01*
X251131904Y-125612619D01*
X251036666Y-125993571D01*
X250941428Y-126184047D01*
X250750952Y-126374523D01*
X250465238Y-126469761D01*
X249989047Y-126469761D01*
X251893809Y-126374523D02*
X252179523Y-126469761D01*
X252655714Y-126469761D01*
X252846190Y-126374523D01*
X252941428Y-126279285D01*
X253036666Y-126088809D01*
X253036666Y-125898333D01*
X252941428Y-125707857D01*
X252846190Y-125612619D01*
X252655714Y-125517380D01*
X252274761Y-125422142D01*
X252084285Y-125326904D01*
X251989047Y-125231666D01*
X251893809Y-125041190D01*
X251893809Y-124850714D01*
X251989047Y-124660238D01*
X252084285Y-124565000D01*
X252274761Y-124469761D01*
X252750952Y-124469761D01*
X253036666Y-124565000D01*
X220893809Y-129619761D02*
X220893809Y-127619761D01*
X220893809Y-128381666D02*
X221084285Y-128286428D01*
X221465238Y-128286428D01*
X221655714Y-128381666D01*
X221750952Y-128476904D01*
X221846190Y-128667380D01*
X221846190Y-129238809D01*
X221750952Y-129429285D01*
X221655714Y-129524523D01*
X221465238Y-129619761D01*
X221084285Y-129619761D01*
X220893809Y-129524523D01*
X222512857Y-128286428D02*
X222989047Y-129619761D01*
X223465238Y-128286428D02*
X222989047Y-129619761D01*
X222798571Y-130095952D01*
X222703333Y-130191190D01*
X222512857Y-130286428D01*
X225750952Y-129619761D02*
X225750952Y-127619761D01*
X226227142Y-127619761D01*
X226512857Y-127715000D01*
X226703333Y-127905476D01*
X226798571Y-128095952D01*
X226893809Y-128476904D01*
X226893809Y-128762619D01*
X226798571Y-129143571D01*
X226703333Y-129334047D01*
X226512857Y-129524523D01*
X226227142Y-129619761D01*
X225750952Y-129619761D01*
X228608095Y-129619761D02*
X228608095Y-128572142D01*
X228512857Y-128381666D01*
X228322380Y-128286428D01*
X227941428Y-128286428D01*
X227750952Y-128381666D01*
X228608095Y-129524523D02*
X228417619Y-129619761D01*
X227941428Y-129619761D01*
X227750952Y-129524523D01*
X227655714Y-129334047D01*
X227655714Y-129143571D01*
X227750952Y-128953095D01*
X227941428Y-128857857D01*
X228417619Y-128857857D01*
X228608095Y-128762619D01*
X229370000Y-128286428D02*
X229846190Y-129619761D01*
X230322380Y-128286428D01*
X231084285Y-129619761D02*
X231084285Y-128286428D01*
X231084285Y-127619761D02*
X230989047Y-127715000D01*
X231084285Y-127810238D01*
X231179523Y-127715000D01*
X231084285Y-127619761D01*
X231084285Y-127810238D01*
X231941428Y-129524523D02*
X232131904Y-129619761D01*
X232512857Y-129619761D01*
X232703333Y-129524523D01*
X232798571Y-129334047D01*
X232798571Y-129238809D01*
X232703333Y-129048333D01*
X232512857Y-128953095D01*
X232227142Y-128953095D01*
X232036666Y-128857857D01*
X231941428Y-128667380D01*
X231941428Y-128572142D01*
X232036666Y-128381666D01*
X232227142Y-128286428D01*
X232512857Y-128286428D01*
X232703333Y-128381666D01*
X235084285Y-129524523D02*
X235370000Y-129619761D01*
X235846190Y-129619761D01*
X236036666Y-129524523D01*
X236131904Y-129429285D01*
X236227142Y-129238809D01*
X236227142Y-129048333D01*
X236131904Y-128857857D01*
X236036666Y-128762619D01*
X235846190Y-128667380D01*
X235465238Y-128572142D01*
X235274761Y-128476904D01*
X235179523Y-128381666D01*
X235084285Y-128191190D01*
X235084285Y-128000714D01*
X235179523Y-127810238D01*
X235274761Y-127715000D01*
X235465238Y-127619761D01*
X235941428Y-127619761D01*
X236227142Y-127715000D01*
X237941428Y-129524523D02*
X237750952Y-129619761D01*
X237370000Y-129619761D01*
X237179523Y-129524523D01*
X237084285Y-129429285D01*
X236989047Y-129238809D01*
X236989047Y-128667380D01*
X237084285Y-128476904D01*
X237179523Y-128381666D01*
X237370000Y-128286428D01*
X237750952Y-128286428D01*
X237941428Y-128381666D01*
X238798571Y-129619761D02*
X238798571Y-127619761D01*
X239655714Y-129619761D02*
X239655714Y-128572142D01*
X239560476Y-128381666D01*
X239370000Y-128286428D01*
X239084285Y-128286428D01*
X238893809Y-128381666D01*
X238798571Y-128476904D01*
X241370000Y-129524523D02*
X241179523Y-129619761D01*
X240798571Y-129619761D01*
X240608095Y-129524523D01*
X240512857Y-129334047D01*
X240512857Y-128572142D01*
X240608095Y-128381666D01*
X240798571Y-128286428D01*
X241179523Y-128286428D01*
X241370000Y-128381666D01*
X241465238Y-128572142D01*
X241465238Y-128762619D01*
X240512857Y-128953095D01*
X242322380Y-128286428D02*
X242322380Y-129619761D01*
X242322380Y-128476904D02*
X242417619Y-128381666D01*
X242608095Y-128286428D01*
X242893809Y-128286428D01*
X243084285Y-128381666D01*
X243179523Y-128572142D01*
X243179523Y-129619761D01*
X244131904Y-129619761D02*
X244131904Y-127619761D01*
X244322380Y-128857857D02*
X244893809Y-129619761D01*
X244893809Y-128286428D02*
X244131904Y-129048333D01*
X246512857Y-129524523D02*
X246322380Y-129619761D01*
X245941428Y-129619761D01*
X245750952Y-129524523D01*
X245655714Y-129334047D01*
X245655714Y-128572142D01*
X245750952Y-128381666D01*
X245941428Y-128286428D01*
X246322380Y-128286428D01*
X246512857Y-128381666D01*
X246608095Y-128572142D01*
X246608095Y-128762619D01*
X245655714Y-128953095D01*
X247465238Y-128286428D02*
X247465238Y-129619761D01*
X247465238Y-128476904D02*
X247560476Y-128381666D01*
X247750952Y-128286428D01*
X248036666Y-128286428D01*
X248227142Y-128381666D01*
X248322380Y-128572142D01*
X248322380Y-129619761D01*
X249274761Y-129619761D02*
X249274761Y-127619761D01*
X249274761Y-128381666D02*
X249465238Y-128286428D01*
X249846190Y-128286428D01*
X250036666Y-128381666D01*
X250131904Y-128476904D01*
X250227142Y-128667380D01*
X250227142Y-129238809D01*
X250131904Y-129429285D01*
X250036666Y-129524523D01*
X249846190Y-129619761D01*
X249465238Y-129619761D01*
X249274761Y-129524523D01*
X251846190Y-129524523D02*
X251655714Y-129619761D01*
X251274761Y-129619761D01*
X251084285Y-129524523D01*
X250989047Y-129334047D01*
X250989047Y-128572142D01*
X251084285Y-128381666D01*
X251274761Y-128286428D01*
X251655714Y-128286428D01*
X251846190Y-128381666D01*
X251941428Y-128572142D01*
X251941428Y-128762619D01*
X250989047Y-128953095D01*
X252798571Y-129619761D02*
X252798571Y-128286428D01*
X252798571Y-128667380D02*
X252893809Y-128476904D01*
X252989047Y-128381666D01*
X253179523Y-128286428D01*
X253370000Y-128286428D01*
X254893809Y-128286428D02*
X254893809Y-129905476D01*
X254798571Y-130095952D01*
X254703333Y-130191190D01*
X254512857Y-130286428D01*
X254227142Y-130286428D01*
X254036666Y-130191190D01*
X254893809Y-129524523D02*
X254703333Y-129619761D01*
X254322380Y-129619761D01*
X254131904Y-129524523D01*
X254036666Y-129429285D01*
X253941428Y-129238809D01*
X253941428Y-128667380D01*
X254036666Y-128476904D01*
X254131904Y-128381666D01*
X254322380Y-128286428D01*
X254703333Y-128286428D01*
X254893809Y-128381666D01*
X256608095Y-129524523D02*
X256417619Y-129619761D01*
X256036666Y-129619761D01*
X255846190Y-129524523D01*
X255750952Y-129334047D01*
X255750952Y-128572142D01*
X255846190Y-128381666D01*
X256036666Y-128286428D01*
X256417619Y-128286428D01*
X256608095Y-128381666D01*
X256703333Y-128572142D01*
X256703333Y-128762619D01*
X255750952Y-128953095D01*
X257560476Y-129619761D02*
X257560476Y-128286428D01*
X257560476Y-128667380D02*
X257655714Y-128476904D01*
X257750952Y-128381666D01*
X257941428Y-128286428D01*
X258131904Y-128286428D01*
D11*
X240132000Y-104376000D02*
X240132000Y-103756000D01*
X241052000Y-105296000D02*
G75*
G03*
X241052000Y-105296000I-920000J0D01*
G01*
X238560000Y-108198000D02*
X237060000Y-108198000D01*
X234560000Y-109448000D02*
X234560000Y-113948000D01*
X237060000Y-115198000D02*
X238560000Y-115198000D01*
X241060000Y-113948000D02*
X241060000Y-109448000D01*
X212720000Y-104288456D02*
X212720000Y-101745012D01*
X212720000Y-107288455D02*
X212720000Y-106351546D01*
X212720000Y-111894991D02*
X212720000Y-109351545D01*
X200479999Y-111894991D02*
X212720000Y-111894991D01*
X200479999Y-101745012D02*
X200479999Y-111894991D01*
X212720000Y-101745012D02*
X200479999Y-101745012D01*
X208764999Y-113672991D02*
X209399999Y-112148991D01*
X210034999Y-113672991D02*
X208764999Y-113672991D01*
X209399999Y-112148991D02*
X210034999Y-113672991D01*
X215510000Y-134730000D02*
X217510000Y-134730000D01*
X211400000Y-148140000D02*
X211400000Y-145080000D01*
X221620000Y-148140000D02*
X211400000Y-148140000D01*
X221620000Y-145080000D02*
X221620000Y-148140000D01*
X221620000Y-134920000D02*
X221620000Y-140980000D01*
X218810000Y-134920000D02*
X221620000Y-134920000D01*
X211400000Y-134920000D02*
X214210000Y-134920000D01*
X211400000Y-140980000D02*
X211400000Y-134920000D01*
D10*
X238664380Y-104192666D02*
X238188190Y-104526000D01*
X238664380Y-104764095D02*
X237664380Y-104764095D01*
X237664380Y-104383142D01*
X237712000Y-104287904D01*
X237759619Y-104240285D01*
X237854857Y-104192666D01*
X237997714Y-104192666D01*
X238092952Y-104240285D01*
X238140571Y-104287904D01*
X238188190Y-104383142D01*
X238188190Y-104764095D01*
X238664380Y-103240285D02*
X238664380Y-103811714D01*
X238664380Y-103526000D02*
X237664380Y-103526000D01*
X237807238Y-103621238D01*
X237902476Y-103716476D01*
X237950095Y-103811714D01*
X233964761Y-113031333D02*
X234012380Y-112888476D01*
X234012380Y-112650380D01*
X233964761Y-112555142D01*
X233917142Y-112507523D01*
X233821904Y-112459904D01*
X233726666Y-112459904D01*
X233631428Y-112507523D01*
X233583809Y-112555142D01*
X233536190Y-112650380D01*
X233488571Y-112840857D01*
X233440952Y-112936095D01*
X233393333Y-112983714D01*
X233298095Y-113031333D01*
X233202857Y-113031333D01*
X233107619Y-112983714D01*
X233060000Y-112936095D01*
X233012380Y-112840857D01*
X233012380Y-112602761D01*
X233060000Y-112459904D01*
X233012380Y-112126571D02*
X234012380Y-111888476D01*
X233298095Y-111698000D01*
X234012380Y-111507523D01*
X233012380Y-111269428D01*
X234012380Y-110364666D02*
X234012380Y-110936095D01*
X234012380Y-110650380D02*
X233012380Y-110650380D01*
X233155238Y-110745619D01*
X233250476Y-110840857D01*
X233298095Y-110936095D01*
X213102380Y-102803333D02*
X213816666Y-102803333D01*
X213959523Y-102850952D01*
X214054761Y-102946190D01*
X214102380Y-103089047D01*
X214102380Y-103184285D01*
X213197619Y-102374761D02*
X213150000Y-102327142D01*
X213102380Y-102231904D01*
X213102380Y-101993809D01*
X213150000Y-101898571D01*
X213197619Y-101850952D01*
X213292857Y-101803333D01*
X213388095Y-101803333D01*
X213530952Y-101850952D01*
X214102380Y-102422380D01*
X214102380Y-101803333D01*
X187425714Y-105739047D02*
X188092380Y-105739047D01*
X187044761Y-105977142D02*
X187759047Y-106215238D01*
X187759047Y-105596190D01*
X187092380Y-105310476D02*
X187092380Y-104691428D01*
X187473333Y-105024761D01*
X187473333Y-104881904D01*
X187520952Y-104786666D01*
X187568571Y-104739047D01*
X187663809Y-104691428D01*
X187901904Y-104691428D01*
X187997142Y-104739047D01*
X188044761Y-104786666D01*
X188092380Y-104881904D01*
X188092380Y-105167619D01*
X188044761Y-105262857D01*
X187997142Y-105310476D01*
X187092380Y-104072380D02*
X187092380Y-103977142D01*
X187140000Y-103881904D01*
X187187619Y-103834285D01*
X187282857Y-103786666D01*
X187473333Y-103739047D01*
X187711428Y-103739047D01*
X187901904Y-103786666D01*
X187997142Y-103834285D01*
X188044761Y-103881904D01*
X188092380Y-103977142D01*
X188092380Y-104072380D01*
X188044761Y-104167619D01*
X187997142Y-104215238D01*
X187901904Y-104262857D01*
X187711428Y-104310476D01*
X187473333Y-104310476D01*
X187282857Y-104262857D01*
X187187619Y-104215238D01*
X187140000Y-104167619D01*
X187092380Y-104072380D01*
X187425714Y-102881904D02*
X188092380Y-102881904D01*
X187044761Y-103120000D02*
X187759047Y-103358095D01*
X187759047Y-102739047D01*
X187092380Y-101881904D02*
X187092380Y-102358095D01*
X187568571Y-102405714D01*
X187520952Y-102358095D01*
X187473333Y-102262857D01*
X187473333Y-102024761D01*
X187520952Y-101929523D01*
X187568571Y-101881904D01*
X187663809Y-101834285D01*
X187901904Y-101834285D01*
X187997142Y-101881904D01*
X188044761Y-101929523D01*
X188092380Y-102024761D01*
X188092380Y-102262857D01*
X188044761Y-102358095D01*
X187997142Y-102405714D01*
X187092380Y-101215238D02*
X187092380Y-101120000D01*
X187140000Y-101024761D01*
X187187619Y-100977142D01*
X187282857Y-100929523D01*
X187473333Y-100881904D01*
X187711428Y-100881904D01*
X187901904Y-100929523D01*
X187997142Y-100977142D01*
X188044761Y-101024761D01*
X188092380Y-101120000D01*
X188092380Y-101215238D01*
X188044761Y-101310476D01*
X187997142Y-101358095D01*
X187901904Y-101405714D01*
X187711428Y-101453333D01*
X187473333Y-101453333D01*
X187282857Y-101405714D01*
X187187619Y-101358095D01*
X187140000Y-101310476D01*
X187092380Y-101215238D01*
X187425714Y-100024761D02*
X188092380Y-100024761D01*
X187044761Y-100262857D02*
X187759047Y-100500952D01*
X187759047Y-99881904D01*
X187092380Y-99310476D02*
X187092380Y-99215238D01*
X187140000Y-99120000D01*
X187187619Y-99072380D01*
X187282857Y-99024761D01*
X187473333Y-98977142D01*
X187711428Y-98977142D01*
X187901904Y-99024761D01*
X187997142Y-99072380D01*
X188044761Y-99120000D01*
X188092380Y-99215238D01*
X188092380Y-99310476D01*
X188044761Y-99405714D01*
X187997142Y-99453333D01*
X187901904Y-99500952D01*
X187711428Y-99548571D01*
X187473333Y-99548571D01*
X187282857Y-99500952D01*
X187187619Y-99453333D01*
X187140000Y-99405714D01*
X187092380Y-99310476D01*
X187092380Y-98358095D02*
X187092380Y-98262857D01*
X187140000Y-98167619D01*
X187187619Y-98120000D01*
X187282857Y-98072380D01*
X187473333Y-98024761D01*
X187711428Y-98024761D01*
X187901904Y-98072380D01*
X187997142Y-98120000D01*
X188044761Y-98167619D01*
X188092380Y-98262857D01*
X188092380Y-98358095D01*
X188044761Y-98453333D01*
X187997142Y-98500952D01*
X187901904Y-98548571D01*
X187711428Y-98596190D01*
X187473333Y-98596190D01*
X187282857Y-98548571D01*
X187187619Y-98500952D01*
X187140000Y-98453333D01*
X187092380Y-98358095D01*
X208852379Y-108320000D02*
X209090475Y-108320000D01*
X208995237Y-108558095D02*
X209090475Y-108320000D01*
X208995237Y-108081904D01*
X209280951Y-108462857D02*
X209090475Y-108320000D01*
X209280951Y-108177142D01*
X216176666Y-133182380D02*
X216176666Y-133896666D01*
X216129047Y-134039523D01*
X216033809Y-134134761D01*
X215890952Y-134182380D01*
X215795714Y-134182380D01*
X217176666Y-134182380D02*
X216605238Y-134182380D01*
X216890952Y-134182380D02*
X216890952Y-133182380D01*
X216795714Y-133325238D01*
X216700476Y-133420476D01*
X216605238Y-133468095D01*
X260190476Y-143252380D02*
X260190476Y-142252380D01*
X260523809Y-142966666D01*
X260857142Y-142252380D01*
X260857142Y-143252380D01*
X261333333Y-143252380D02*
X261333333Y-142252380D01*
X261904761Y-143252380D02*
X261476190Y-142680952D01*
X261904761Y-142252380D02*
X261333333Y-142823809D01*
X262761904Y-142585714D02*
X262761904Y-143252380D01*
X262523809Y-142204761D02*
X262285714Y-142919047D01*
X262904761Y-142919047D01*
X202190476Y-143252380D02*
X202190476Y-142252380D01*
X202523809Y-142966666D01*
X202857142Y-142252380D01*
X202857142Y-143252380D01*
X203333333Y-143252380D02*
X203333333Y-142252380D01*
X203904761Y-143252380D02*
X203476190Y-142680952D01*
X203904761Y-142252380D02*
X203333333Y-142823809D01*
X204238095Y-142252380D02*
X204857142Y-142252380D01*
X204523809Y-142633333D01*
X204666666Y-142633333D01*
X204761904Y-142680952D01*
X204809523Y-142728571D01*
X204857142Y-142823809D01*
X204857142Y-143061904D01*
X204809523Y-143157142D01*
X204761904Y-143204761D01*
X204666666Y-143252380D01*
X204380952Y-143252380D01*
X204285714Y-143204761D01*
X204238095Y-143157142D01*
X260190476Y-101652380D02*
X260190476Y-100652380D01*
X260523809Y-101366666D01*
X260857142Y-100652380D01*
X260857142Y-101652380D01*
X261333333Y-101652380D02*
X261333333Y-100652380D01*
X261904761Y-101652380D02*
X261476190Y-101080952D01*
X261904761Y-100652380D02*
X261333333Y-101223809D01*
X262285714Y-100747619D02*
X262333333Y-100700000D01*
X262428571Y-100652380D01*
X262666666Y-100652380D01*
X262761904Y-100700000D01*
X262809523Y-100747619D01*
X262857142Y-100842857D01*
X262857142Y-100938095D01*
X262809523Y-101080952D01*
X262238095Y-101652380D01*
X262857142Y-101652380D01*
X202190476Y-101652380D02*
X202190476Y-100652380D01*
X202523809Y-101366666D01*
X202857142Y-100652380D01*
X202857142Y-101652380D01*
X203333333Y-101652380D02*
X203333333Y-100652380D01*
X203904761Y-101652380D02*
X203476190Y-101080952D01*
X203904761Y-100652380D02*
X203333333Y-101223809D01*
X204857142Y-101652380D02*
X204285714Y-101652380D01*
X204571428Y-101652380D02*
X204571428Y-100652380D01*
X204476190Y-100795238D01*
X204380952Y-100890476D01*
X204285714Y-100938095D01*
M02*
