G04 #@! TF.GenerationSoftware,KiCad,Pcbnew,5.1.10-88a1d61d58~88~ubuntu20.04.1*
G04 #@! TF.CreationDate,2021-06-08T22:25:17-06:00*
G04 #@! TF.ProjectId,raspberrypi-led-hat-2,72617370-6265-4727-9279-70692d6c6564,rev?*
G04 #@! TF.SameCoordinates,Original*
G04 #@! TF.FileFunction,Other,User*
%FSLAX46Y46*%
G04 Gerber Fmt 4.6, Leading zero omitted, Abs format (unit mm)*
G04 Created by KiCad (PCBNEW 5.1.10-88a1d61d58~88~ubuntu20.04.1) date 2021-06-08 22:25:17*
%MOMM*%
%LPD*%
G01*
G04 APERTURE LIST*
%ADD10C,0.050000*%
G04 APERTURE END LIST*
D10*
X239082000Y-101806000D02*
X239082000Y-106346000D01*
X241182000Y-101806000D02*
X239082000Y-101806000D01*
X241182000Y-106346000D02*
X241182000Y-101806000D01*
X239082000Y-106346000D02*
X241182000Y-106346000D01*
X234310000Y-106948000D02*
X241310000Y-106948000D01*
X241560000Y-107198000D02*
X241560000Y-116198000D01*
X241310000Y-116448000D02*
X234310000Y-116448000D01*
X234060000Y-116198000D02*
X234060000Y-107198000D01*
X241560000Y-116448000D02*
X241560000Y-116198000D01*
X241310000Y-116448000D02*
X241560000Y-116448000D01*
X234060000Y-116448000D02*
X234060000Y-116198000D01*
X234310000Y-116448000D02*
X234060000Y-116448000D01*
X234060000Y-106948000D02*
X234310000Y-106948000D01*
X234060000Y-107198000D02*
X234060000Y-106948000D01*
X241560000Y-106948000D02*
X241310000Y-106948000D01*
X241560000Y-107198000D02*
X241560000Y-106948000D01*
X213990000Y-113164991D02*
X213990000Y-100475012D01*
X199209999Y-113164991D02*
X213990000Y-113164991D01*
X199209999Y-100475012D02*
X199209999Y-113164991D01*
X213990000Y-100475012D02*
X199209999Y-100475012D01*
X222510000Y-134530000D02*
X210510000Y-134530000D01*
X222510000Y-148530000D02*
X222510000Y-134530000D01*
X210510000Y-148530000D02*
X222510000Y-148530000D01*
X210510000Y-134530000D02*
X210510000Y-148530000D01*
X264450000Y-146500000D02*
G75*
G03*
X264450000Y-146500000I-2950000J0D01*
G01*
X206450000Y-146500000D02*
G75*
G03*
X206450000Y-146500000I-2950000J0D01*
G01*
X264450000Y-97500000D02*
G75*
G03*
X264450000Y-97500000I-2950000J0D01*
G01*
X206450000Y-97500000D02*
G75*
G03*
X206450000Y-97500000I-2950000J0D01*
G01*
M02*
