G04 #@! TF.GenerationSoftware,KiCad,Pcbnew,5.1.10-88a1d61d58~88~ubuntu20.04.1*
G04 #@! TF.CreationDate,2021-06-08T22:25:17-06:00*
G04 #@! TF.ProjectId,raspberrypi-led-hat-2,72617370-6265-4727-9279-70692d6c6564,rev?*
G04 #@! TF.SameCoordinates,Original*
G04 #@! TF.FileFunction,Soldermask,Bot*
G04 #@! TF.FilePolarity,Negative*
%FSLAX46Y46*%
G04 Gerber Fmt 4.6, Leading zero omitted, Abs format (unit mm)*
G04 Created by KiCad (PCBNEW 5.1.10-88a1d61d58~88~ubuntu20.04.1) date 2021-06-08 22:25:17*
%MOMM*%
%LPD*%
G01*
G04 APERTURE LIST*
%ADD10O,1.400000X1.400000*%
%ADD11C,1.400000*%
%ADD12C,1.524000*%
%ADD13R,1.524000X1.524000*%
%ADD14C,2.000000*%
%ADD15C,2.999999*%
%ADD16C,1.520000*%
%ADD17R,1.520000X1.520000*%
%ADD18C,1.600000*%
%ADD19O,2.000000X3.500000*%
%ADD20O,3.300000X2.000000*%
%ADD21R,4.000000X2.000000*%
%ADD22R,1.700000X1.700000*%
%ADD23O,1.700000X1.700000*%
%ADD24C,2.700000*%
G04 APERTURE END LIST*
D10*
X240132000Y-102756000D03*
D11*
X240132000Y-105296000D03*
D12*
X230480000Y-113424000D03*
X227940000Y-113424000D03*
X225400000Y-113424000D03*
X222860000Y-113424000D03*
X220320000Y-113424000D03*
D13*
X217780000Y-113424000D03*
D12*
X230480000Y-103264000D03*
X227940000Y-103264000D03*
X225400000Y-103264000D03*
X222860000Y-103264000D03*
X220320000Y-103264000D03*
D13*
X217780000Y-103264000D03*
D14*
X235560000Y-108448000D03*
X240060000Y-108448000D03*
X235560000Y-114948000D03*
X240060000Y-114948000D03*
D15*
X205080000Y-106820000D03*
D16*
X212399998Y-105320001D03*
X212399998Y-108320000D03*
X209399999Y-105320001D03*
D17*
X209399999Y-108320000D03*
D18*
X216510000Y-145030000D03*
D19*
X221010000Y-143030000D03*
X212010000Y-143030000D03*
D20*
X216510000Y-142030000D03*
D21*
X216510000Y-136030000D03*
D22*
X208370000Y-98770000D03*
D23*
X208370000Y-96230000D03*
X210910000Y-98770000D03*
X210910000Y-96230000D03*
X213450000Y-98770000D03*
X213450000Y-96230000D03*
X215990000Y-98770000D03*
X215990000Y-96230000D03*
X218530000Y-98770000D03*
X218530000Y-96230000D03*
X221070000Y-98770000D03*
X221070000Y-96230000D03*
X223610000Y-98770000D03*
X223610000Y-96230000D03*
X226150000Y-98770000D03*
X226150000Y-96230000D03*
X228690000Y-98770000D03*
X228690000Y-96230000D03*
X231230000Y-98770000D03*
X231230000Y-96230000D03*
X233770000Y-98770000D03*
X233770000Y-96230000D03*
X236310000Y-98770000D03*
X236310000Y-96230000D03*
X238850000Y-98770000D03*
X238850000Y-96230000D03*
X241390000Y-98770000D03*
X241390000Y-96230000D03*
X243930000Y-98770000D03*
X243930000Y-96230000D03*
X246470000Y-98770000D03*
X246470000Y-96230000D03*
X249010000Y-98770000D03*
X249010000Y-96230000D03*
X251550000Y-98770000D03*
X251550000Y-96230000D03*
X254090000Y-98770000D03*
X254090000Y-96230000D03*
X256630000Y-98770000D03*
X256630000Y-96230000D03*
D24*
X261500000Y-146500000D03*
X203500000Y-146500000D03*
X261500000Y-97500000D03*
X203500000Y-97500000D03*
M02*
