G04 #@! TF.GenerationSoftware,KiCad,Pcbnew,5.1.10-88a1d61d58~88~ubuntu20.04.1*
G04 #@! TF.CreationDate,2021-06-08T22:25:17-06:00*
G04 #@! TF.ProjectId,raspberrypi-led-hat-2,72617370-6265-4727-9279-70692d6c6564,rev?*
G04 #@! TF.SameCoordinates,Original*
G04 #@! TF.FileFunction,Legend,Bot*
G04 #@! TF.FilePolarity,Positive*
%FSLAX46Y46*%
G04 Gerber Fmt 4.6, Leading zero omitted, Abs format (unit mm)*
G04 Created by KiCad (PCBNEW 5.1.10-88a1d61d58~88~ubuntu20.04.1) date 2021-06-08 22:25:17*
%MOMM*%
%LPD*%
G01*
G04 APERTURE LIST*
%ADD10C,0.127000*%
%ADD11C,0.120000*%
%ADD12C,0.015000*%
%ADD13C,0.150000*%
G04 APERTURE END LIST*
D10*
X216105000Y-101679000D02*
X216105000Y-115009000D01*
X232155000Y-101679000D02*
X216105000Y-101679000D01*
X232155000Y-115009000D02*
X232155000Y-101679000D01*
X216105000Y-115009000D02*
X232155000Y-115009000D01*
D11*
X207040000Y-94900000D02*
X207040000Y-97500000D01*
X207040000Y-94900000D02*
X257960000Y-94900000D01*
X257960000Y-94900000D02*
X257960000Y-100100000D01*
X209640000Y-100100000D02*
X257960000Y-100100000D01*
X209640000Y-97500000D02*
X209640000Y-100100000D01*
X207040000Y-97500000D02*
X209640000Y-97500000D01*
X207040000Y-100100000D02*
X208370000Y-100100000D01*
X207040000Y-98770000D02*
X207040000Y-100100000D01*
D12*
X214447380Y-104257095D02*
X215256904Y-104257095D01*
X215352142Y-104304714D01*
X215399761Y-104352333D01*
X215447380Y-104447571D01*
X215447380Y-104638047D01*
X215399761Y-104733285D01*
X215352142Y-104780904D01*
X215256904Y-104828523D01*
X214447380Y-104828523D01*
X215447380Y-105828523D02*
X215447380Y-105257095D01*
X215447380Y-105542809D02*
X214447380Y-105542809D01*
X214590238Y-105447571D01*
X214685476Y-105352333D01*
X214733095Y-105257095D01*
D13*
X207596095Y-101430380D02*
X207596095Y-100430380D01*
X207215142Y-100430380D01*
X207119904Y-100478000D01*
X207072285Y-100525619D01*
X207024666Y-100620857D01*
X207024666Y-100763714D01*
X207072285Y-100858952D01*
X207119904Y-100906571D01*
X207215142Y-100954190D01*
X207596095Y-100954190D01*
X206072285Y-101430380D02*
X206643714Y-101430380D01*
X206358000Y-101430380D02*
X206358000Y-100430380D01*
X206453238Y-100573238D01*
X206548476Y-100668476D01*
X206643714Y-100716095D01*
M02*
