<svg xmlns="http://www.w3.org/2000/svg" xmlns:xlink="http://www.w3.org/1999/xlink" xmlns:lucid="lucid" width="1000" height="745.5"><g transform="translate(-60 -114.50000000000003)" lucid:page-tab-id="0_0"><path d="M0 0h1760v1360H0z" fill="#fff"/><path d="M160 174.5c0 22.1-17.9 40-40 40s-40-17.9-40-40 17.9-40 40-40 40 17.9 40 40z" stroke="#5e5e5e" stroke-width="3"/><path d="M240 146c0-3.3 2.7-6 6-6h228c3.3 0 6 2.7 6 6v268c0 3.3-2.7 6-6 6H246c-3.3 0-6-2.7-6-6z" stroke="#5e5e5e" stroke-width="3" fill="#fff"/><path d="M162.25 178.5H220" stroke="#5e5e5e" stroke-width="2" fill="none"/><path d="M162.28 179.5h-1.1l.14-2h.96z" fill="#5e5e5e"/><path d="M235.26 178.5L221 183.14v-9.28z" stroke="#5e5e5e" stroke-width="2" fill="#5e5e5e"/><path d="M140 146c0-3.3 2.7-6 6-6h228c3.3 0 6 2.7 6 6v48c0 3.3-2.7 6-6 6H146c-3.3 0-6-2.7-6-6z" stroke="#000" stroke-opacity="0" stroke-width="3" fill="#fff" fill-opacity="0"/><use xlink:href="#a" transform="matrix(1,0,0,1,145,145) translate(97.12962962962963 30.27777777777778)"/><path d="M560 146c0-3.3 2.7-6 6-6h468c3.3 0 6 2.7 6 6v408c0 3.3-2.7 6-6 6H566c-3.3 0-6-2.7-6-6z" stroke="#5e5e5e" stroke-width="3" fill="#fff"/><path d="M560 146c0-3.3 2.7-6 6-6h88c3.3 0 6 2.7 6 6v28c0 3.3-2.7 6-6 6h-88c-3.3 0-6-2.7-6-6z" stroke="#000" stroke-opacity="0" stroke-width="3" fill="#fff" fill-opacity="0"/><use xlink:href="#b" transform="matrix(1,0,0,1,565,145) translate(9.228395061728392 19.65277777777778)"/><path d="M380 180c0 11.05-8.95 20-20 20s-20-8.95-20-20 8.95-20 20-20 20 8.95 20 20z" stroke="#5e5e5e" stroke-width="3"/><path d="M300 261c0-3.3 2.7-6 6-6h108c3.3 0 6 2.7 6 6v88c0 3.3-2.7 6-6 6H306c-3.3 0-6-2.7-6-6z" stroke="#5e5e5e" stroke-width="3" fill="#fff"/><use xlink:href="#c" transform="matrix(1,0,0,1,305,260) translate(17.22222222222222 37.46527777777778)"/><use xlink:href="#d" transform="matrix(1,0,0,1,305,260) translate(66.91358024691358 37.46527777777778)"/><use xlink:href="#e" transform="matrix(1,0,0,1,305,260) translate(9.969135802469125 64.13194444444446)"/><path d="M360 202.5V235" stroke="#5e5e5e" stroke-width="2" fill="none"/><path d="M359.93 201.5l1.07-.03v1.06h-2v-1.14z" fill="#5e5e5e"/><path d="M360 250.26L355.36 236h9.28z" stroke="#5e5e5e" stroke-width="2" fill="#5e5e5e"/><path d="M380 420c0 11.05-8.95 20-20 20s-20-8.95-20-20 8.95-20 20-20 20 8.95 20 20zm-34.14-14.14l28.28 28.28m-28.28 0l28.28-28.28M240 546c0-3.3 2.7-6 6-6h288c3.3 0 6 2.7 6 6v288c0 3.3-2.7 6-6 6H246c-3.3 0-6-2.7-6-6z" stroke="#5e5e5e" stroke-width="3" fill="#fff"/><path d="M220 546c0-3.3 2.7-6 6-6h228c3.3 0 6 2.7 6 6v48c0 3.3-2.7 6-6 6H226c-3.3 0-6-2.7-6-6z" stroke="#000" stroke-opacity="0" stroke-width="3" fill="#fff" fill-opacity="0"/><use xlink:href="#f" transform="matrix(1,0,0,1,225,545) translate(31.759259259259252 30.27777777777778)"/><use xlink:href="#g" transform="matrix(1,0,0,1,225,545) translate(108.179012345679 30.27777777777778)"/><path d="M300 620c0 11.05-8.95 20-20 20s-20-8.95-20-20 8.95-20 20-20 20 8.95 20 20z" stroke="#5e5e5e" stroke-width="3"/><path d="M360 357.5V380" stroke="#5e5e5e" stroke-width="2" fill="none"/><path d="M361 357.53h-2v-1.03h2z" fill="#5e5e5e"/><path d="M360 395.26L355.36 381h9.28z" stroke="#5e5e5e" stroke-width="2" fill="#5e5e5e"/><path d="M360 442.5v79" stroke="#5e5e5e" stroke-width="2" fill="none"/><path d="M359.93 441.5l1.07-.03v1.06h-2v-1.14z" fill="#5e5e5e"/><path d="M360 536.76l-4.64-14.26h9.28z" stroke="#5e5e5e" stroke-width="2" fill="#5e5e5e"/><path d="M366.4 684.8c2-2.65 5.2-2.65 7.2 0l22.8 30.4c2 2.65 2 6.95 0 9.6l-22.8 30.4c-2 2.65-5.2 2.65-7.2 0l-22.8-30.4c-2-2.65-2-6.95 0-9.6z" stroke="#5e5e5e" stroke-width="3" fill="#fff"/><path d="M302.5 620H364c3.3 0 6 2.7 6 6v36.9" stroke="#5e5e5e" stroke-width="2" fill="none"/><path d="M302.53 621h-1.14l.1-.93-.03-1.07h1.06z" fill="#5e5e5e"/><path d="M370 678.15l-4.64-14.26h9.28z" stroke="#5e5e5e" stroke-width="2" fill="#5e5e5e"/><path d="M560 720c0 11.05-8.95 20-20 20s-20-8.95-20-20 8.95-20 20-20 20 8.95 20 20zm-34.14-14.14l28.28 28.28m-28.28 0l28.28-28.28" stroke="#5e5e5e" stroke-width="3" fill="#fff"/><path d="M400.33 720H500" stroke="#5e5e5e" stroke-width="2" fill="none"/><path d="M400.36 721h-1.05l.05-2h1z" fill="#5e5e5e"/><path d="M515.26 720L501 724.64v-9.28z" stroke="#5e5e5e" stroke-width="2" fill="#5e5e5e"/><path d="M260 720c0 11.05-8.95 20-20 20s-20-8.95-20-20 8.95-20 20-20 20 8.95 20 20zm-34.14-14.14l28.28 28.28m-28.28 0l28.28-28.28" stroke="#5e5e5e" stroke-width="3" fill="#fff"/><path d="M339.67 720H280" stroke="#5e5e5e" stroke-width="2" fill="none"/><path d="M340.65 721h-1v-2h1.04z" fill="#5e5e5e"/><path d="M264.74 720l14.26-4.64v9.28z" stroke="#5e5e5e" stroke-width="2" fill="#5e5e5e"/><path d="M217.5 720h-33c-3.3 0-6-2.7-6-6V413.6c0-3.3 2.7-6 6-6H220" stroke="#5e5e5e" stroke-width="2" fill="none"/><path d="M218.5 719.93l.03 1.07h-1.06v-2h1.14z" fill="#5e5e5e"/><path d="M235.26 407.6L221 412.24v-9.28z" stroke="#5e5e5e" stroke-width="2" fill="#5e5e5e"/><path d="M562.5 720h29.55c3.3 0 6-2.7 6-6V580" stroke="#5e5e5e" stroke-width="2" fill="none"/><path d="M562.53 721h-1.14l.1-.93-.03-1.07h1.06z" fill="#5e5e5e"/><path d="M598.05 564.74l4.63 14.26h-9.27z" stroke="#5e5e5e" stroke-width="2" fill="#5e5e5e"/><path d="M140 146c0-3.3 2.7-6 6-6h228c3.3 0 6 2.7 6 6v48c0 3.3-2.7 6-6 6H146c-3.3 0-6-2.7-6-6z" stroke="#000" stroke-opacity="0" stroke-width="3" fill="#fff" fill-opacity="0"/><use xlink:href="#a" transform="matrix(1,0,0,1,145,145) translate(97.12962962962963 30.27777777777778)"/><path d="M700 170c0 11.05-8.95 20-20 20s-20-8.95-20-20 8.95-20 20-20 20 8.95 20 20z" stroke="#5e5e5e" stroke-width="3"/><path d="M300 726c0-3.3 2.7-6 6-6h28c3.3 0 6 2.7 6 6v28c0 3.3-2.7 6-6 6h-28c-3.3 0-6-2.7-6-6z" stroke="#000" stroke-opacity="0" stroke-width="3" fill="#fff" fill-opacity="0"/><use xlink:href="#h" transform="matrix(1,0,0,1,305,725) translate(0.7037037037037077 17.97222222222222)"/><path d="M400 726c0-3.3 2.7-6 6-6h88c3.3 0 6 2.7 6 6v28c0 3.3-2.7 6-6 6h-88c-3.3 0-6-2.7-6-6z" stroke="#000" stroke-opacity="0" stroke-width="3" fill="#fff" fill-opacity="0"/><use xlink:href="#i" transform="matrix(1,0,0,1,405,725) translate(16.382716049382715 17.97222222222222)"/><path d="M630 214c0-3.3 2.7-6 6-6h88c3.3 0 6 2.7 6 6v52c0 3.3-2.7 6-6 6h-88c-3.3 0-6-2.7-6-6z" stroke="#5e5e5e" stroke-width="3" fill="#fff"/><use xlink:href="#j" transform="matrix(1,0,0,1,642,220) translate(30.60802469135803 8.888888888888884)"/><use xlink:href="#k" transform="matrix(1,0,0,1,642,220) translate(5.345679012345698 22.222222222222207)"/><use xlink:href="#l" transform="matrix(1,0,0,1,642,220) translate(26.61111111111112 35.555555555555536)"/><path d="M680 192.5v-1" stroke="#5e5e5e" stroke-width="2" fill="none"/><path d="M679.93 191.5l1.07-.03v1.06h-2v-1.14z" fill="#5e5e5e"/><path d="M680 203.26L675.36 189h9.28z" stroke="#5e5e5e" stroke-width="2" fill="#5e5e5e"/><path d="M630 290.67c0-3.32 2.7-6 6-6h88c3.3 0 6 2.68 6 6v38.66c0 3.32-2.7 6-6 6h-88c-3.3 0-6-2.68-6-6z" stroke="#5e5e5e" stroke-width="3" fill="#fff"/><use xlink:href="#m" transform="matrix(1,0,0,1,642,296.6666666666667) translate(9.01851851851853 8.888888888888884)"/><use xlink:href="#n" transform="matrix(1,0,0,1,642,296.6666666666667) translate(32.44444444444444 8.888888888888884)"/><use xlink:href="#o" transform="matrix(1,0,0,1,642,296.6666666666667) translate(29.6820987654321 22.222222222222207)"/><path d="M675.3 383.75c2.6-2.07 6.8-2.07 9.4 0l28.1 22.5c2.6 2.07 2.6 5.43 0 7.5l-28.1 22.5c-2.6 2.07-6.8 2.07-9.4 0l-28.1-22.5c-2.6-2.07-2.6-5.43 0-7.5z" stroke="#5e5e5e" stroke-width="3" fill="#fff"/><use xlink:href="#p" transform="matrix(1,0,0,1,647.5,385) translate(22.5512962962963 21.388888888888886)"/><use xlink:href="#q" transform="matrix(1,0,0,1,647.5,385) translate(16.79512345679013 34.72222222222221)"/><path d="M680 274.5v-1" stroke="#5e5e5e" stroke-width="2" fill="none"/><path d="M681 274.53h-2v-1.03h2z" fill="#5e5e5e"/><path d="M680 279.93l-4.64-14.27h9.28z" stroke="#5e5e5e" stroke-width="2" fill="#5e5e5e"/><path d="M581.25 410c0 11.05-8.95 20-20 20s-20-8.95-20-20 8.95-20 20-20 20 8.95 20 20zm-34.14-14.14l28.3 28.28m-28.3 0l28.3-28.28" stroke="#5e5e5e" stroke-width="3" fill="#fff"/><path d="M642.78 410h-41.53" stroke="#5e5e5e" stroke-width="2" fill="none"/><path d="M643.7 409.63l.27 1.37h-1.22v-2h1.16z" fill="#5e5e5e"/><path d="M586 410l14.25-4.64v9.28z" stroke="#5e5e5e" stroke-width="2" fill="#5e5e5e"/><path d="M602.5 426c0-3.3 2.7-6 6-6h28c3.3 0 6 2.7 6 6v28c0 3.3-2.7 6-6 6h-28c-3.3 0-6-2.7-6-6z" stroke="#000" stroke-opacity="0" stroke-width="3" fill="#fff" fill-opacity="0"/><use xlink:href="#a" transform="matrix(1,0,0,1,607.5,425) translate(-2.8703703703703702 19.444444444444443)"/><path d="M538.75 410H500" stroke="#5e5e5e" stroke-width="2" fill="none"/><path d="M539.75 409.93l.03 1.07h-1.06v-2h1.14z" fill="#5e5e5e"/><path d="M484.74 410l14.26-4.64v9.28z" stroke="#5e5e5e" stroke-width="2" fill="#5e5e5e"/><path d="M680 337.83v24.43" stroke="#5e5e5e" stroke-width="2" fill="none"/><path d="M681 337.86h-2v-1.03h2z" fill="#5e5e5e"/><path d="M680 377.52l-4.64-14.26h9.28z" stroke="#5e5e5e" stroke-width="2" fill="#5e5e5e"/><path d="M820 391c0-3.3 2.7-6 6-6h89.25c3.3 0 6 2.7 6 6v38c0 3.3-2.7 6-6 6H826c-3.3 0-6-2.7-6-6z" stroke="#5e5e5e" stroke-width="3" fill="#fff"/><use xlink:href="#r" transform="matrix(1,0,0,1,832,397) translate(5.712962962962983 10.513888888888884)"/><use xlink:href="#s" transform="matrix(1,0,0,1,832,397) translate(45.157407407407405 10.513888888888884)"/><use xlink:href="#t" transform="matrix(1,0,0,1,832,397) translate(22.364197530864203 23.847222222222207)"/><use xlink:href="#u" transform="matrix(1,0,0,1,832,397) translate(34.70987654320987 23.847222222222207)"/><path d="M717.22 410H800" stroke="#5e5e5e" stroke-width="2" fill="none"/><path d="M717.25 411h-1.16l.2-.63-.27-1.37h1.22z" fill="#5e5e5e"/><path d="M815.26 410L801 414.64v-9.28z" stroke="#5e5e5e" stroke-width="2" fill="#5e5e5e"/><path d="M730 426c0-3.3 2.7-6 6-6h28c3.3 0 6 2.7 6 6v28c0 3.3-2.7 6-6 6h-28c-3.3 0-6-2.7-6-6z" stroke="#000" stroke-opacity="0" stroke-width="3" fill="#fff" fill-opacity="0"/><use xlink:href="#v" transform="matrix(1,0,0,1,735,425) translate(-21.358024691358025 19.444444444444443)"/><path d="M865.96 268.77c2.58-2.08 6.75-2.08 9.33 0l46.3 37.46c2.56 2.08 2.56 5.46 0 7.54l-46.3 37.46c-2.6 2.08-6.76 2.08-9.34 0l-46.3-37.46c-2.57-2.08-2.57-5.46 0-7.54z" stroke="#5e5e5e" stroke-width="3" fill="#fff"/><use xlink:href="#w" transform="matrix(1,0,0,1,820,270) translate(26.77043209876544 36.388888888888886)"/><use xlink:href="#x" transform="matrix(1,0,0,1,820,270) translate(61.307469135802464 36.388888888888886)"/><use xlink:href="#y" transform="matrix(1,0,0,1,820,270) translate(28.48956790123458 49.722222222222214)"/><path d="M1000 560c0 11.05-8.95 20-20 20s-20-8.95-20-20 8.95-20 20-20 20 8.95 20 20zm-34.14-14.14l28.28 28.28m-28.28 0l28.28-28.28" stroke="#5e5e5e" stroke-width="3" fill="#fff"/><path d="M870.63 382.5v-9.77" stroke="#5e5e5e" stroke-width="2" fill="none"/><path d="M871.63 383.5h-2v-1.03h2z" fill="#5e5e5e"/><path d="M870.63 357.46l4.63 14.27H866z" stroke="#5e5e5e" stroke-width="2" fill="#5e5e5e"/><path d="M980.6 531.9h-2V409.56h2zm-3.45-221.98l2.53 2.53.92 3.42v80.36h-2v-80.1l-.7-2.64-1.8-1.8-2.63-.7H926v-2h47.73z" fill="#5e5e5e"/><path d="M926.02 311h-1.17l.2-.67-.26-1.33H926zM979.6 547.16l-4.64-14.26h9.28z" fill="#5e5e5e"/><path d="M979.6 550.4l-6-18.5h12zm-3.26-16.5l3.26 10.03 3.26-10.03z" fill="#5e5e5e"/><g><use xlink:href="#z" transform="matrix(1,0,0,1,930.4796296296298,396.228806753451) translate(0 8.88888888888889)"/><use xlink:href="#A" transform="matrix(1,0,0,1,930.4796296296298,396.228806753451) translate(49.93827160493827 8.88888888888889)"/></g><path d="M815.26 310H750" stroke="#5e5e5e" stroke-width="2" fill="none"/><path d="M816.2 309.67l.26 1.33h-1.23v-2h1.17z" fill="#5e5e5e"/><path d="M734.74 310l14.26-4.64v9.28z" stroke="#5e5e5e" stroke-width="2" fill="#5e5e5e"/><path d="M980 582.5V782c0 3.3-2.7 6-6 6H560" stroke="#5e5e5e" stroke-width="2" fill="none"/><path d="M979.93 581.5l1.07-.03v1.06h-2v-1.14z" fill="#5e5e5e"/><path d="M544.74 788l14.26-4.64v9.28z" stroke="#5e5e5e" stroke-width="2" fill="#5e5e5e"/><defs><path fill="#333" d="M33 0v-248h34V0H33" id="B"/><path fill="#333" d="M85-194c31 0 48 13 60 33l-1-100h32l1 261h-30c-2-10 0-23-3-31C134-8 116 4 85 4 32 4 16-35 15-94c0-66 23-100 70-100zm9 24c-40 0-46 34-46 75 0 40 6 74 45 74 42 0 51-32 51-76 0-42-9-74-50-73" id="C"/><path fill="#333" d="M24 0v-261h32V0H24" id="D"/><path fill="#333" d="M100-194c63 0 86 42 84 106H49c0 40 14 67 53 68 26 1 43-12 49-29l28 8c-11 28-37 45-77 45C44 4 14-33 15-96c1-61 26-98 85-98zm52 81c6-60-76-77-97-28-3 7-6 17-6 28h103" id="E"/><g id="a"><use transform="matrix(0.06172839506172839,0,0,0.06172839506172839,0,0)" xlink:href="#B"/><use transform="matrix(0.06172839506172839,0,0,0.06172839506172839,6.172839506172839,0)" xlink:href="#C"/><use transform="matrix(0.06172839506172839,0,0,0.06172839506172839,18.51851851851852,0)" xlink:href="#D"/><use transform="matrix(0.06172839506172839,0,0,0.06172839506172839,23.395061728395063,0)" xlink:href="#E"/></g><path fill="#333" d="M30-248c87 1 191-15 191 75 0 78-77 80-158 76V0H30v-248zm33 125c57 0 124 11 124-50 0-59-68-47-124-48v98" id="F"/><path fill="#333" d="M141-36C126-15 110 5 73 4 37 3 15-17 15-53c-1-64 63-63 125-63 3-35-9-54-41-54-24 1-41 7-42 31l-33-3c5-37 33-52 76-52 45 0 72 20 72 64v82c-1 20 7 32 28 27v20c-31 9-61-2-59-35zM48-53c0 20 12 33 32 33 41-3 63-29 60-74-43 2-92-5-92 41" id="G"/><path fill="#333" d="M59-47c-2 24 18 29 38 22v24C64 9 27 4 27-40v-127H5v-23h24l9-43h21v43h35v23H59v120" id="H"/><path fill="#333" d="M114-163C36-179 61-72 57 0H25l-1-190h30c1 12-1 29 2 39 6-27 23-49 58-41v29" id="I"/><path fill="#333" d="M117-194c89-4 53 116 60 194h-32v-121c0-31-8-49-39-48C34-167 62-67 57 0H25l-1-190h30c1 10-1 24 2 32 11-22 29-35 61-36" id="J"/><g id="b"><use transform="matrix(0.06172839506172839,0,0,0.06172839506172839,0,0)" xlink:href="#F"/><use transform="matrix(0.06172839506172839,0,0,0.06172839506172839,14.814814814814813,0)" xlink:href="#G"/><use transform="matrix(0.06172839506172839,0,0,0.06172839506172839,27.160493827160494,0)" xlink:href="#H"/><use transform="matrix(0.06172839506172839,0,0,0.06172839506172839,33.333333333333336,0)" xlink:href="#H"/><use transform="matrix(0.06172839506172839,0,0,0.06172839506172839,39.50617283950618,0)" xlink:href="#E"/><use transform="matrix(0.06172839506172839,0,0,0.06172839506172839,51.851851851851855,0)" xlink:href="#I"/><use transform="matrix(0.06172839506172839,0,0,0.06172839506172839,59.19753086419753,0)" xlink:href="#J"/></g><path fill="#333" d="M266 0h-40l-56-210L115 0H75L2-248h35L96-30l15-64 43-154h32l59 218 59-218h35" id="K"/><path fill="#333" d="M24-231v-30h32v30H24zM24 0v-190h32V0H24" id="L"/><g id="c"><use transform="matrix(0.06172839506172839,0,0,0.06172839506172839,0,0)" xlink:href="#K"/><use transform="matrix(0.06172839506172839,0,0,0.06172839506172839,20.123456790123456,0)" xlink:href="#G"/><use transform="matrix(0.06172839506172839,0,0,0.06172839506172839,32.46913580246913,0)" xlink:href="#L"/><use transform="matrix(0.06172839506172839,0,0,0.06172839506172839,37.34567901234568,0)" xlink:href="#H"/></g><path fill="#333" d="M101-234c-31-9-42 10-38 44h38v23H63V0H32v-167H5v-23h27c-7-52 17-82 69-68v24" id="M"/><path fill="#333" d="M100-194c62-1 85 37 85 99 1 63-27 99-86 99S16-35 15-95c0-66 28-99 85-99zM99-20c44 1 53-31 53-75 0-43-8-75-51-75s-53 32-53 75 10 74 51 75" id="N"/><g id="d"><use transform="matrix(0.06172839506172839,0,0,0.06172839506172839,0,0)" xlink:href="#M"/><use transform="matrix(0.06172839506172839,0,0,0.06172839506172839,6.172839506172839,0)" xlink:href="#N"/><use transform="matrix(0.06172839506172839,0,0,0.06172839506172839,18.51851851851852,0)" xlink:href="#I"/></g><path fill="#333" d="M210-169c-67 3-38 105-44 169h-31v-121c0-29-5-50-35-48C34-165 62-65 56 0H25l-1-190h30c1 10-1 24 2 32 10-44 99-50 107 0 11-21 27-35 58-36 85-2 47 119 55 194h-31v-121c0-29-5-49-35-48" id="O"/><path fill="#333" d="M135-143c-3-34-86-38-87 0 15 53 115 12 119 90S17 21 10-45l28-5c4 36 97 45 98 0-10-56-113-15-118-90-4-57 82-63 122-42 12 7 21 19 24 35" id="P"/><path fill="#333" d="M177-190C167-65 218 103 67 71c-23-6-38-20-44-43l32-5c15 47 100 32 89-28v-30C133-14 115 1 83 1 29 1 15-40 15-95c0-56 16-97 71-98 29-1 48 16 59 35 1-10 0-23 2-32h30zM94-22c36 0 50-32 50-73 0-42-14-75-50-75-39 0-46 34-46 75s6 73 46 73" id="Q"/><g id="e"><use transform="matrix(0.06172839506172839,0,0,0.06172839506172839,0,0)" xlink:href="#O"/><use transform="matrix(0.06172839506172839,0,0,0.06172839506172839,18.456790123456788,0)" xlink:href="#E"/><use transform="matrix(0.06172839506172839,0,0,0.06172839506172839,30.80246913580247,0)" xlink:href="#P"/><use transform="matrix(0.06172839506172839,0,0,0.06172839506172839,41.91358024691358,0)" xlink:href="#P"/><use transform="matrix(0.06172839506172839,0,0,0.06172839506172839,53.0246913580247,0)" xlink:href="#G"/><use transform="matrix(0.06172839506172839,0,0,0.06172839506172839,65.37037037037038,0)" xlink:href="#Q"/><use transform="matrix(0.06172839506172839,0,0,0.06172839506172839,77.71604938271606,0)" xlink:href="#E"/></g><path fill="#333" d="M197 0v-115H63V0H30v-248h33v105h134v-105h34V0h-34" id="R"/><g id="f"><use transform="matrix(0.06172839506172839,0,0,0.06172839506172839,0,0)" xlink:href="#R"/><use transform="matrix(0.06172839506172839,0,0,0.06172839506172839,15.987654320987653,0)" xlink:href="#G"/><use transform="matrix(0.06172839506172839,0,0,0.06172839506172839,28.333333333333332,0)" xlink:href="#J"/><use transform="matrix(0.06172839506172839,0,0,0.06172839506172839,40.67901234567901,0)" xlink:href="#C"/><use transform="matrix(0.06172839506172839,0,0,0.06172839506172839,53.02469135802469,0)" xlink:href="#D"/><use transform="matrix(0.06172839506172839,0,0,0.06172839506172839,57.901234567901234,0)" xlink:href="#E"/></g><path fill="#333" d="M240 0l2-218c-23 76-54 145-80 218h-23L58-218 59 0H30v-248h44l77 211c21-75 51-140 76-211h43V0h-30" id="S"/><g id="g"><use transform="matrix(0.06172839506172839,0,0,0.06172839506172839,0,0)" xlink:href="#S"/><use transform="matrix(0.06172839506172839,0,0,0.06172839506172839,18.456790123456788,0)" xlink:href="#E"/><use transform="matrix(0.06172839506172839,0,0,0.06172839506172839,30.80246913580247,0)" xlink:href="#P"/><use transform="matrix(0.06172839506172839,0,0,0.06172839506172839,41.91358024691358,0)" xlink:href="#P"/><use transform="matrix(0.06172839506172839,0,0,0.06172839506172839,53.0246913580247,0)" xlink:href="#G"/><use transform="matrix(0.06172839506172839,0,0,0.06172839506172839,65.37037037037038,0)" xlink:href="#Q"/><use transform="matrix(0.06172839506172839,0,0,0.06172839506172839,77.71604938271606,0)" xlink:href="#E"/></g><g id="h"><use transform="matrix(0.049382716049382706,0,0,0.049382716049382706,0,0)" xlink:href="#B"/><use transform="matrix(0.049382716049382706,0,0,0.049382716049382706,4.93827160493827,0)" xlink:href="#C"/><use transform="matrix(0.049382716049382706,0,0,0.049382716049382706,14.814814814814811,0)" xlink:href="#D"/><use transform="matrix(0.049382716049382706,0,0,0.049382716049382706,18.716049382716044,0)" xlink:href="#E"/></g><g id="i"><use transform="matrix(0.049382716049382706,0,0,0.049382716049382706,0,0)" xlink:href="#F"/><use transform="matrix(0.049382716049382706,0,0,0.049382716049382706,11.85185185185185,0)" xlink:href="#G"/><use transform="matrix(0.049382716049382706,0,0,0.049382716049382706,21.728395061728392,0)" xlink:href="#H"/><use transform="matrix(0.049382716049382706,0,0,0.049382716049382706,26.666666666666668,0)" xlink:href="#H"/><use transform="matrix(0.049382716049382706,0,0,0.049382716049382706,31.604938271604937,0)" xlink:href="#E"/><use transform="matrix(0.049382716049382706,0,0,0.049382716049382706,41.48148148148148,0)" xlink:href="#I"/><use transform="matrix(0.049382716049382706,0,0,0.049382716049382706,47.358024691358025,0)" xlink:href="#J"/></g><g id="j"><use transform="matrix(0.030864197530864175,0,0,0.030864197530864175,0,0)" xlink:href="#B"/><use transform="matrix(0.030864197530864175,0,0,0.030864197530864175,3.0864197530864175,0)" xlink:href="#J"/><use transform="matrix(0.030864197530864175,0,0,0.030864197530864175,9.259259259259252,0)" xlink:href="#L"/><use transform="matrix(0.030864197530864175,0,0,0.030864197530864175,11.697530864197523,0)" xlink:href="#H"/></g><path fill="#333" d="M0 4l72-265h28L28 4H0" id="T"/><path fill="#333" d="M212-179c-10-28-35-45-73-45-59 0-87 40-87 99 0 60 29 101 89 101 43 0 62-24 78-52l27 14C228-24 195 4 139 4 59 4 22-46 18-125c-6-104 99-153 187-111 19 9 31 26 39 46" id="U"/><g id="k"><use transform="matrix(0.030864197530864175,0,0,0.030864197530864175,0,0)" xlink:href="#F"/><use transform="matrix(0.030864197530864175,0,0,0.030864197530864175,7.407407407407402,0)" xlink:href="#G"/><use transform="matrix(0.030864197530864175,0,0,0.030864197530864175,13.580246913580236,0)" xlink:href="#H"/><use transform="matrix(0.030864197530864175,0,0,0.030864197530864175,16.666666666666654,0)" xlink:href="#H"/><use transform="matrix(0.030864197530864175,0,0,0.030864197530864175,19.75308641975307,0)" xlink:href="#E"/><use transform="matrix(0.030864197530864175,0,0,0.030864197530864175,25.925925925925906,0)" xlink:href="#I"/><use transform="matrix(0.030864197530864175,0,0,0.030864197530864175,29.598765432098745,0)" xlink:href="#J"/><use transform="matrix(0.030864197530864175,0,0,0.030864197530864175,35.77160493827158,0)" xlink:href="#T"/><use transform="matrix(0.030864197530864175,0,0,0.030864197530864175,38.858024691358,0)" xlink:href="#U"/><use transform="matrix(0.030864197530864175,0,0,0.030864197530864175,46.85185185185182,0)" xlink:href="#D"/><use transform="matrix(0.030864197530864175,0,0,0.030864197530864175,49.29012345679009,0)" xlink:href="#E"/><use transform="matrix(0.030864197530864175,0,0,0.030864197530864175,55.462962962962926,0)" xlink:href="#G"/><use transform="matrix(0.030864197530864175,0,0,0.030864197530864175,61.63580246913576,0)" xlink:href="#I"/></g><path fill="#333" d="M185-189c-5-48-123-54-124 2 14 75 158 14 163 119 3 78-121 87-175 55-17-10-28-26-33-46l33-7c5 56 141 63 141-1 0-78-155-14-162-118-5-82 145-84 179-34 5 7 8 16 11 25" id="V"/><path fill="#333" d="M115-194c55 1 70 41 70 98S169 2 115 4C84 4 66-9 55-30l1 105H24l-1-265h31l2 30c10-21 28-34 59-34zm-8 174c40 0 45-34 45-75s-6-73-45-74c-42 0-51 32-51 76 0 43 10 73 51 73" id="W"/><g id="l"><use transform="matrix(0.030864197530864175,0,0,0.030864197530864175,0,0)" xlink:href="#V"/><use transform="matrix(0.030864197530864175,0,0,0.030864197530864175,7.407407407407402,0)" xlink:href="#H"/><use transform="matrix(0.030864197530864175,0,0,0.030864197530864175,10.493827160493819,0)" xlink:href="#I"/><use transform="matrix(0.030864197530864175,0,0,0.030864197530864175,14.166666666666655,0)" xlink:href="#L"/><use transform="matrix(0.030864197530864175,0,0,0.030864197530864175,16.604938271604926,0)" xlink:href="#W"/></g><path fill="#333" d="M233-177c-1 41-23 64-60 70L243 0h-38l-65-103H63V0H30v-248c88 3 205-21 203 71zM63-129c60-2 137 13 137-47 0-61-80-42-137-45v92" id="X"/><path fill="#333" d="M84 4C-5 8 30-112 23-190h32v120c0 31 7 50 39 49 72-2 45-101 50-169h31l1 190h-30c-1-10 1-25-2-33-11 22-28 36-60 37" id="Y"/><g id="m"><use transform="matrix(0.030864197530864182,0,0,0.030864197530864182,0,0)" xlink:href="#X"/><use transform="matrix(0.030864197530864182,0,0,0.030864197530864182,7.993827160493823,0)" xlink:href="#Y"/><use transform="matrix(0.030864197530864182,0,0,0.030864197530864182,14.16666666666666,0)" xlink:href="#J"/></g><g id="n"><use transform="matrix(0.030864197530864182,0,0,0.030864197530864182,0,0)" xlink:href="#W"/><use transform="matrix(0.030864197530864182,0,0,0.030864197530864182,6.172839506172837,0)" xlink:href="#G"/><use transform="matrix(0.030864197530864182,0,0,0.030864197530864182,12.345679012345673,0)" xlink:href="#H"/><use transform="matrix(0.030864197530864182,0,0,0.030864197530864182,15.432098765432091,0)" xlink:href="#H"/><use transform="matrix(0.030864197530864182,0,0,0.030864197530864182,18.51851851851851,0)" xlink:href="#E"/><use transform="matrix(0.030864197530864182,0,0,0.030864197530864182,24.691358024691347,0)" xlink:href="#I"/><use transform="matrix(0.030864197530864182,0,0,0.030864197530864182,28.364197530864185,0)" xlink:href="#J"/></g><path fill="#333" d="M96-169c-40 0-48 33-48 73s9 75 48 75c24 0 41-14 43-38l32 2c-6 37-31 61-74 61-59 0-76-41-82-99-10-93 101-131 147-64 4 7 5 14 7 22l-32 3c-4-21-16-35-41-35" id="Z"/><path fill="#333" d="M143 0L79-87 56-68V0H24v-261h32v163l83-92h37l-77 82L181 0h-38" id="aa"/><g id="o"><use transform="matrix(0.030864197530864182,0,0,0.030864197530864182,0,0)" xlink:href="#H"/><use transform="matrix(0.030864197530864182,0,0,0.030864197530864182,3.0864197530864184,0)" xlink:href="#L"/><use transform="matrix(0.030864197530864182,0,0,0.030864197530864182,5.524691358024689,0)" xlink:href="#Z"/><use transform="matrix(0.030864197530864182,0,0,0.030864197530864182,11.080246913580241,0)" xlink:href="#aa"/></g><path fill="#333" d="M127-220V0H93v-220H8v-28h204v28h-85" id="ab"/><g id="p"><use transform="matrix(0.030864197530864182,0,0,0.030864197530864182,0,0)" xlink:href="#ab"/><use transform="matrix(0.030864197530864182,0,0,0.030864197530864182,6.358024691358022,0)" xlink:href="#L"/><use transform="matrix(0.030864197530864182,0,0,0.030864197530864182,8.796296296296292,0)" xlink:href="#Z"/><use transform="matrix(0.030864197530864182,0,0,0.030864197530864182,14.351851851851844,0)" xlink:href="#aa"/></g><g id="q"><use transform="matrix(0.030864197530864182,0,0,0.030864197530864182,0,0)" xlink:href="#X"/><use transform="matrix(0.030864197530864182,0,0,0.030864197530864182,7.993827160493823,0)" xlink:href="#E"/><use transform="matrix(0.030864197530864182,0,0,0.030864197530864182,14.16666666666666,0)" xlink:href="#P"/><use transform="matrix(0.030864197530864182,0,0,0.030864197530864182,19.722222222222214,0)" xlink:href="#Y"/><use transform="matrix(0.030864197530864182,0,0,0.030864197530864182,25.89506172839505,0)" xlink:href="#D"/><use transform="matrix(0.030864197530864182,0,0,0.030864197530864182,28.33333333333332,0)" xlink:href="#H"/></g><g id="r"><use transform="matrix(0.030864197530864182,0,0,0.030864197530864182,0,0)" xlink:href="#X"/><use transform="matrix(0.030864197530864182,0,0,0.030864197530864182,7.993827160493823,0)" xlink:href="#E"/><use transform="matrix(0.030864197530864182,0,0,0.030864197530864182,14.16666666666666,0)" xlink:href="#J"/><use transform="matrix(0.030864197530864182,0,0,0.030864197530864182,20.3395061728395,0)" xlink:href="#C"/><use transform="matrix(0.030864197530864182,0,0,0.030864197530864182,26.512345679012334,0)" xlink:href="#E"/><use transform="matrix(0.030864197530864182,0,0,0.030864197530864182,32.68518518518517,0)" xlink:href="#I"/></g><path fill="#333" d="M30 0v-248h33v221h125V0H30" id="ac"/><path fill="#333" d="M30 0v-248h187v28H63v79h144v27H63v87h162V0H30" id="ad"/><path fill="#333" d="M30-248c118-7 216 8 213 122C240-48 200 0 122 0H30v-248zM63-27c89 8 146-16 146-99s-60-101-146-95v194" id="ae"/><g id="s"><use transform="matrix(0.030864197530864182,0,0,0.030864197530864182,0,0)" xlink:href="#ac"/><use transform="matrix(0.030864197530864182,0,0,0.030864197530864182,6.172839506172837,0)" xlink:href="#ad"/><use transform="matrix(0.030864197530864182,0,0,0.030864197530864182,13.58024691358024,0)" xlink:href="#ae"/><use transform="matrix(0.030864197530864182,0,0,0.030864197530864182,21.574074074074062,0)" xlink:href="#P"/></g><g id="t"><use transform="matrix(0.030864197530864182,0,0,0.030864197530864182,0,0)" xlink:href="#H"/><use transform="matrix(0.030864197530864182,0,0,0.030864197530864182,3.0864197530864184,0)" xlink:href="#N"/></g><g id="u"><use transform="matrix(0.030864197530864182,0,0,0.030864197530864182,0,0)" xlink:href="#P"/><use transform="matrix(0.030864197530864182,0,0,0.030864197530864182,5.555555555555553,0)" xlink:href="#H"/><use transform="matrix(0.030864197530864182,0,0,0.030864197530864182,8.641975308641971,0)" xlink:href="#I"/><use transform="matrix(0.030864197530864182,0,0,0.030864197530864182,12.31481481481481,0)" xlink:href="#L"/><use transform="matrix(0.030864197530864182,0,0,0.030864197530864182,14.75308641975308,0)" xlink:href="#W"/></g><g id="v"><use transform="matrix(0.06172839506172839,0,0,0.06172839506172839,0,0)" xlink:href="#X"/><use transform="matrix(0.06172839506172839,0,0,0.06172839506172839,15.987654320987653,0)" xlink:href="#E"/><use transform="matrix(0.06172839506172839,0,0,0.06172839506172839,28.333333333333332,0)" xlink:href="#J"/><use transform="matrix(0.06172839506172839,0,0,0.06172839506172839,40.67901234567901,0)" xlink:href="#C"/><use transform="matrix(0.06172839506172839,0,0,0.06172839506172839,53.02469135802469,0)" xlink:href="#E"/><use transform="matrix(0.06172839506172839,0,0,0.06172839506172839,65.37037037037037,0)" xlink:href="#I"/></g><path fill="#333" d="M106-169C34-169 62-67 57 0H25v-261h32l-1 103c12-21 28-36 61-36 89 0 53 116 60 194h-32v-121c2-32-8-49-39-48" id="af"/><g id="w"><use transform="matrix(0.030864197530864182,0,0,0.030864197530864182,0,0)" xlink:href="#U"/><use transform="matrix(0.030864197530864182,0,0,0.030864197530864182,7.993827160493823,0)" xlink:href="#af"/><use transform="matrix(0.030864197530864182,0,0,0.030864197530864182,14.16666666666666,0)" xlink:href="#E"/><use transform="matrix(0.030864197530864182,0,0,0.030864197530864182,20.3395061728395,0)" xlink:href="#Z"/><use transform="matrix(0.030864197530864182,0,0,0.030864197530864182,25.895061728395053,0)" xlink:href="#aa"/></g><g id="x"><use transform="matrix(0.030864197530864182,0,0,0.030864197530864182,0,0)" xlink:href="#M"/><use transform="matrix(0.030864197530864182,0,0,0.030864197530864182,3.0864197530864184,0)" xlink:href="#N"/><use transform="matrix(0.030864197530864182,0,0,0.030864197530864182,9.259259259259256,0)" xlink:href="#I"/></g><g id="y"><use transform="matrix(0.030864197530864182,0,0,0.030864197530864182,0,0)" xlink:href="#O"/><use transform="matrix(0.030864197530864182,0,0,0.030864197530864182,9.22839506172839,0)" xlink:href="#E"/><use transform="matrix(0.030864197530864182,0,0,0.030864197530864182,15.401234567901227,0)" xlink:href="#P"/><use transform="matrix(0.030864197530864182,0,0,0.030864197530864182,20.95679012345678,0)" xlink:href="#P"/><use transform="matrix(0.030864197530864182,0,0,0.030864197530864182,26.512345679012334,0)" xlink:href="#G"/><use transform="matrix(0.030864197530864182,0,0,0.030864197530864182,32.68518518518517,0)" xlink:href="#Q"/><use transform="matrix(0.030864197530864182,0,0,0.030864197530864182,38.858024691358004,0)" xlink:href="#E"/></g><path fill="#333" d="M230 0l2-204L168 0h-37L68-204 70 0H24v-248h70l56 185 57-185h69V0h-46" id="ag"/><path fill="#333" d="M185-48c-13 30-37 53-82 52C43 2 14-33 14-96s30-98 90-98c62 0 83 45 84 108H66c0 31 8 55 39 56 18 0 30-7 34-22zm-45-69c5-46-57-63-70-21-2 6-4 13-4 21h74" id="ah"/><path fill="#333" d="M137-138c1-29-70-34-71-4 15 46 118 7 119 86 1 83-164 76-172 9l43-7c4 19 20 25 44 25 33 8 57-30 24-41C81-84 22-81 20-136c-2-80 154-74 161-7" id="ai"/><path fill="#333" d="M133-34C117-15 103 5 69 4 32 3 11-16 11-54c-1-60 55-63 116-61 1-26-3-47-28-47-18 1-26 9-28 27l-52-2c7-38 36-58 82-57s74 22 75 68l1 82c-1 14 12 18 25 15v27c-30 8-71 5-69-32zm-48 3c29 0 43-24 42-57-32 0-66-3-65 30 0 17 8 27 23 27" id="aj"/><path fill="#333" d="M195-6C206 82 75 100 31 46c-4-6-6-13-8-21l49-6c3 16 16 24 34 25 40 0 42-37 40-79-11 22-30 35-61 35-53 0-70-43-70-97 0-56 18-96 73-97 30 0 46 14 59 34l2-30h47zm-90-29c32 0 41-27 41-63 0-35-9-62-40-62-32 0-39 29-40 63 0 36 9 62 39 62" id="ak"/><g id="z"><use transform="matrix(0.030864197530864196,0,0,0.030864197530864196,0,0)" xlink:href="#ag"/><use transform="matrix(0.030864197530864196,0,0,0.030864197530864196,9.228395061728394,0)" xlink:href="#ah"/><use transform="matrix(0.030864197530864196,0,0,0.030864197530864196,15.401234567901234,0)" xlink:href="#ai"/><use transform="matrix(0.030864197530864196,0,0,0.030864197530864196,21.574074074074073,0)" xlink:href="#ai"/><use transform="matrix(0.030864197530864196,0,0,0.030864197530864196,27.74691358024691,0)" xlink:href="#aj"/><use transform="matrix(0.030864197530864196,0,0,0.030864197530864196,33.91975308641975,0)" xlink:href="#ak"/><use transform="matrix(0.030864197530864196,0,0,0.030864197530864196,40.67901234567901,0)" xlink:href="#ah"/></g><path fill="#333" d="M199 0l-22-63H83L61 0H9l90-248h61L250 0h-51zm-33-102l-36-108c-10 38-24 72-36 108h72" id="al"/><path fill="#333" d="M128 0H69L1-190h53L99-40l48-150h52" id="am"/><path fill="#333" d="M25-224v-37h50v37H25zM25 0v-190h50V0H25" id="an"/><path fill="#333" d="M25 0v-261h50V0H25" id="ao"/><path fill="#333" d="M135-194c52 0 70 43 70 98 0 56-19 99-73 100-30 1-46-15-58-35L72 0H24l1-261h50v104c11-23 29-37 60-37zM114-30c31 0 40-27 40-66 0-37-7-63-39-63s-41 28-41 65c0 36 8 64 40 64" id="ap"/><g id="A"><use transform="matrix(0.030864197530864196,0,0,0.030864197530864196,0,0)" xlink:href="#al"/><use transform="matrix(0.030864197530864196,0,0,0.030864197530864196,7.592592592592592,0)" xlink:href="#am"/><use transform="matrix(0.030864197530864196,0,0,0.030864197530864196,13.76543209876543,0)" xlink:href="#aj"/><use transform="matrix(0.030864197530864196,0,0,0.030864197530864196,19.93827160493827,0)" xlink:href="#an"/><use transform="matrix(0.030864197530864196,0,0,0.030864197530864196,23.02469135802469,0)" xlink:href="#ao"/><use transform="matrix(0.030864197530864196,0,0,0.030864197530864196,26.11111111111111,0)" xlink:href="#aj"/><use transform="matrix(0.030864197530864196,0,0,0.030864197530864196,32.28395061728395,0)" xlink:href="#ap"/><use transform="matrix(0.030864197530864196,0,0,0.030864197530864196,39.04320987654321,0)" xlink:href="#ao"/><use transform="matrix(0.030864197530864196,0,0,0.030864197530864196,42.129629629629626,0)" xlink:href="#ah"/></g></defs></g></svg>